<?xml version="1.0" encoding="UTF-8"?>
<svg id="Capa_1" xmlns="http://www.w3.org/2000/svg" version="1.1" viewBox="0 0 200.9 114.6">
  <!-- Generator: Adobe Illustrator 30.1.0, SVG Export Plug-In . SVG Version: 2.1.1 Build 136)  -->
  <defs>
    <style>
      .st0 {
        fill: #428ecc;
      }

      .st1 {
        fill: #fff;
      }
    </style>
  </defs>
  <rect class="st0" y="1" width="200.7" height="114.4"/>
  <g>
    <g>
      <path class="st1" d="M81.6,46.9c4.5,0,6,3,6,3h0s0-.6,0-1.3v-4.9c0-.6-.3-.8-.8-.8h-1.6v-3.2h3.7c1.7,0,2.5.7,2.5,2.5v20.6c0,.6.3.8.8.8h1.6v3.2h-3.6c-1.7,0-2.4-.8-2.4-2.1s0-1,0-1h0s-1.6,3.5-6.4,3.5-8.6-4.1-8.6-10.2,3.6-10.2,8.8-10.2ZM87.7,57.1c0-3.5-1.8-6.9-5.5-6.9s-5.6,2.5-5.6,7,2.3,7,5.5,7,5.6-2,5.6-7Z"/>
      <path class="st1" d="M96.7,51.3c-.2-.6-.6-.8-1.2-.8h-.4v-3.2h1.9c1.7,0,2.4.4,3,2l4.2,11.2c.4,1.1.7,2.5.7,2.5h0s.3-1.5.7-2.5l4.1-11.2c.6-1.5,1.3-2,3-2h1.8v3.2h-.4c-.7,0-1,.2-1.3.8l-5.9,15.5h-4.3l-6-15.5Z"/>
      <path class="st1" d="M118.5,51.4c0-.6-.3-.8-.8-.8h-1.6v-3.2h3.6c1.7,0,2.5.7,2.5,2.5v12.9c0,.6.3.8.8.8h1.6v3.2h-3.6c-1.7,0-2.5-.7-2.5-2.5v-12.9ZM118.5,39.7h3.3v3.9h-3.3v-3.9Z"/>
      <path class="st1" d="M137.4,46.9c2.3,0,7,1,7,4.3v2h-3.4v-1.1c0-1.4-2.2-2-3.6-2-3.8,0-6.6,2.8-6.6,7s3.2,6.9,6.8,6.9,6-2.7,6-2.7l1.6,2.6s-2.8,3.3-7.9,3.3-10.4-4.3-10.4-10.2,4.2-10.2,10.4-10.2Z"/>
      <path class="st1" d="M157.2,46.9c5.5,0,8.4,4.1,8.4,9.1s-.1,1.5-.1,1.5h-14.2c.2,4.1,3.2,6.5,6.7,6.5s5.7-2.3,5.7-2.3l1.6,2.6s-2.9,2.8-7.5,2.8-10.3-4.4-10.3-10.2,4.2-10.2,9.8-10.2ZM161.7,54.8c-.1-3.2-2.2-5-4.6-5s-5.1,1.7-5.7,5h10.3Z"/>
    </g>
    <path class="st1" d="M64.1,57.4l-11.6-20.7h-2.6l-6.8,13.5v.2c.7.8,1.4,1.6,2.1,2.3l.4.4,5.7-11.2,15.1,26.8,3.1-1.6-3.4-6c2.1-3,3.2-6.5,3.2-10.2v-5.2c0-9.9-8.1-18-18-18s-18,8.1-18,18v5.2c0,9.9,8.1,18,18,18s5.3-.6,7.7-1.8l.8,1.4c.4.8,1.1,1.3,2,1.5.3,0,.5.1.8.1.6,0,1.1-.2,1.7-.5l.3-.2-2.5-4.3h0s-3.9-6.8-3.9-6.8l-3.1,1.9,2.1,3.7c-1.9.9-3.9,1.3-6,1.3-8,0-14.4-6.5-14.4-14.4v-5.2c0-8,6.5-14.4,14.4-14.4s14.4,6.5,14.4,14.4v5.2c0,2.3-.6,4.6-1.6,6.6Z"/>
  </g>
  <g>
    <path class="st1" d="M56.1,83.8v.8h-1.7v5.4h-1v-5.4h-1.7v-.8h4.4Z"/>
    <path class="st1" d="M60.8,90l-1.4-2.5h-.8v2.5h-1v-6.3h2.2c.5,0,.9,0,1.2.3s.6.4.7.7c.2.3.2.6.2.9s-.1.8-.4,1.1-.6.6-1.1.7l1.5,2.6h-1.2ZM58.6,86.7h1.1c.4,0,.7,0,.9-.3.2-.2.3-.5.3-.8s0-.6-.3-.8c-.2-.2-.5-.3-.9-.3h-1.1v2.1Z"/>
    <path class="st1" d="M64.8,83.8v4c0,.5.1.8.4,1.1.2.2.6.4,1,.4s.8-.1,1-.4c.2-.2.4-.6.4-1.1v-4h1v4c0,.5-.1.9-.3,1.3-.2.4-.5.6-.9.8-.4.2-.8.3-1.2.3s-.9,0-1.2-.3c-.4-.2-.7-.4-.9-.8-.2-.4-.3-.8-.3-1.3v-4h1Z"/>
    <path class="st1" d="M71.3,89.9c-.3-.1-.6-.4-.8-.6-.2-.3-.3-.6-.3-.9h1.1c0,.3.1.5.3.7.2.2.5.3.8.3s.6,0,.8-.3c.2-.2.3-.4.3-.7s0-.4-.2-.5-.3-.2-.5-.3c-.2,0-.4-.1-.8-.2-.4-.1-.7-.2-1-.3-.3-.1-.5-.3-.7-.5-.2-.2-.3-.5-.3-.9s0-.7.3-.9c.2-.3.4-.5.8-.6.3-.1.7-.2,1.1-.2.6,0,1.1.2,1.5.5.4.3.6.7.6,1.2h-1.1c0-.2-.1-.4-.3-.6s-.5-.2-.8-.2-.5,0-.7.2c-.2.1-.3.4-.3.6s0,.3.2.5.3.2.4.3c.2,0,.4.2.7.2.4.1.8.2,1,.3.3.1.5.3.7.5.2.2.3.6.3,1s0,.6-.3.9c-.2.3-.4.5-.7.7s-.7.3-1.2.3-.8,0-1.1-.2Z"/>
    <path class="st1" d="M80.3,83.8v.8h-1.7v5.4h-1v-5.4h-1.7v-.8h4.4Z"/>
    <path class="st1" d="M88.4,88.8h-2.6l-.5,1.3h-1.1l2.2-6.3h1.2l2.2,6.3h-1.1l-.5-1.3ZM88.1,87.9l-1-2.9-1,2.9h2Z"/>
    <path class="st1" d="M96.5,90h-1l-3.1-4.7v4.7h-1v-6.3h1l3.1,4.7v-4.7h1v6.3Z"/>
    <path class="st1" d="M102.1,84.2c.5.3.9.6,1.2,1.1.3.5.4,1,.4,1.7s-.1,1.2-.4,1.7c-.3.5-.7.8-1.2,1.1s-1.1.4-1.8.4h-2v-6.3h2c.7,0,1.2.1,1.8.4ZM102,88.6c.4-.4.6-1,.6-1.7s-.2-1.3-.6-1.7c-.4-.4-1-.6-1.7-.6h-1v4.6h1c.7,0,1.3-.2,1.7-.6Z"/>
    <path class="st1" d="M108.9,84.6v1.8h2.2v.8h-2.2v1.9h2.4v.8h-3.5v-6.3h3.5v.8h-2.4Z"/>
    <path class="st1" d="M115.9,86.9l1.9,3.1h-1.2l-1.4-2.3-1.3,2.3h-1.1l1.9-3.1-2-3.1h1.2l1.4,2.3,1.3-2.3h1.1l-2,3.1Z"/>
    <path class="st1" d="M123.6,86.5c-.2.3-.4.5-.7.7-.3.2-.8.3-1.3.3h-1.1v2.5h-1v-6.3h2.2c.5,0,.9,0,1.2.2s.6.4.7.7c.2.3.2.6.2.9s0,.6-.2.9ZM122.5,86.4c.2-.2.3-.4.3-.8,0-.7-.4-1-1.2-1h-1.1v2h1.1c.4,0,.7,0,.9-.3Z"/>
    <path class="st1" d="M126.3,84.6v1.8h2.2v.8h-2.2v1.9h2.4v.8h-3.5v-6.3h3.5v.8h-2.4Z"/>
    <path class="st1" d="M133.7,90l-1.4-2.5h-.8v2.5h-1v-6.3h2.2c.5,0,.9,0,1.2.3s.6.4.7.7c.2.3.2.6.2.9s-.1.8-.4,1.1-.6.6-1.1.7l1.5,2.6h-1.2ZM131.4,86.7h1.1c.4,0,.7,0,.9-.3.2-.2.3-.5.3-.8s0-.6-.3-.8c-.2-.2-.5-.3-.9-.3h-1.1v2.1Z"/>
    <path class="st1" d="M140.6,83.8v.8h-1.7v5.4h-1v-5.4h-1.7v-.8h4.4Z"/>
    <path class="st1" d="M143.1,83.8v6.3h-1v-6.3h1Z"/>
    <path class="st1" d="M145.8,89.9c-.3-.1-.6-.4-.8-.6-.2-.3-.3-.6-.3-.9h1.1c0,.3.1.5.3.7.2.2.5.3.8.3s.6,0,.8-.3c.2-.2.3-.4.3-.7s0-.4-.2-.5c-.1-.1-.3-.2-.5-.3-.2,0-.4-.1-.8-.2-.4-.1-.7-.2-1-.3-.3-.1-.5-.3-.7-.5-.2-.2-.3-.5-.3-.9s0-.7.3-.9c.2-.3.4-.5.8-.6.3-.1.7-.2,1.1-.2.6,0,1.1.2,1.5.5.4.3.6.7.6,1.2h-1.1c0-.2-.1-.4-.3-.6s-.5-.2-.8-.2-.5,0-.7.2c-.2.1-.3.4-.3.6s0,.3.2.5.3.2.4.3c.2,0,.4.2.7.2.4.1.8.2,1,.3.3.1.5.3.7.5.2.2.3.6.3,1s0,.6-.3.9c-.2.3-.4.5-.7.7s-.7.3-1.2.3-.8,0-1.1-.2Z"/>
    <path class="st1" d="M151.8,84.6v1.8h2.2v.8h-2.2v1.9h2.4v.8h-3.5v-6.3h3.5v.8h-2.4Z"/>
  </g>
</svg>