<?xml version="1.0" encoding="UTF-8"?>
<svg id="Capa_1" xmlns="http://www.w3.org/2000/svg" version="1.1" viewBox="0 0 2048 524">
  <!-- Generator: Adobe Illustrator 30.1.0, SVG Export Plug-In . SVG Version: 2.1.1 Build 136)  -->
  <defs>
    <style>
      .st0 {
        fill: #149bd7;
      }
    </style>
  </defs>
  <path class="st0" d="M473.1,261.8H117.1c-13.8,1.5-24.9,12.2-24.9,26.3v115.8c0,16.2,13.1,27.3,28.9,27.3h409.7c15-.1,27-12.4,27-27.3V120.1c0-16.1-12-27.7-28.1-28H7.8s0-84.3,0-84.3h556.1c44.5,2.9,78.7,40.2,78.7,84.5v339.5c-.1,43.1-35.2,83.5-80.1,83.5H87.4c-42.8,0-79.3-38.5-79.3-80.1v-178.1c0-43.1,36.7-77.1,79-80h385.9c0,0,0,84.7,0,84.7Z"/>
  <path d="M1946.8,391.7c-25.5-7-36.5-29-36.9-53.8v-101.7s-88.1,0-88.1,0v110.6c.6,8.4,6.9,13.7,15,12.9,15.3-.9,17.2-15.2,17.2-27.8v-31.8c0,0,31.4,0,31.4,0v39.6c0,22.1-10.2,43-32.5,50.4-19.4,6.5-40.8,7-60.5,1.4-24.6-7.1-36.1-29-36.1-53.6v-101.6c-.1,0-26.4-.4-26.4-.4v-31.5c40.2-.2,49.2-41.8,52.9-73.2h38.9s0,73.1,0,73.1h63.4c12.7,0,23.9-5.7,31.9-15.3,6.2-7.4,9.9-15.9,12.8-25.1,3.3-10.8,5-21.4,6.2-32.8h39s.1,73,.1,73l48.5.4v31.4c-.1,0-48.4.1-48.4.1v110.2c0,9.2,7.9,14.5,16.1,13.3,12.7-1.9,15.9-12.4,16-24.1l.3-35.5h31.4s0,36.9,0,36.9c0,24.2-9.5,45.9-33.9,53.5-18.8,5.9-39.1,6.5-58.6,1.2Z"/>
  <path d="M1437.3,199.8c-9.7-1.3-19.2-1.7-28.7.9-14.5,4.3-25.7,13.1-37,24.7l-.3-97.6h-97.6s0,31.3,0,31.3l21.3.3c6.1,0,10.8,5.3,10.8,12.3l.2,217.5h44c0,0,11.9-23.9,11.9-23.9,18.2,28.4,53.4,34.6,84,27.1,44-10.8,57.8-55.1,57.9-95.4,0-45-16.8-89.9-66.4-97.2ZM1432,323.9c-2.3,17-9.2,36.7-28.5,37.4-37.3,1.3-33.6-69.5-29.8-93.7,2.7-17.6,11-36.2,30.8-35,34.1,2,30.7,68.1,27.6,91.2Z"/>
  <path d="M1722.3,265.9c-6.3-24.2-21.9-43.7-43.9-55.1-30.8-15.9-74.7-16.1-105.8-1.1-23.8,11.5-40.4,32.4-46.5,58.2-11.3,47.3,4.1,100,53.1,118.9,53.2,20.6,126.1,4.7,143.1-58.8,5.5-20.5,5.4-41.7,0-62.2ZM1654.6,327.5c-2,17.3-8.6,35.6-29.2,36.2-24.6.7-30.2-22.9-31.8-42.4-1.8-21.5-2.3-54.2,5.6-74.1,4.3-10.9,13.4-16.9,24.9-17,21-.3,28.4,17.4,30.5,35.5,2.5,20.6,2.5,41.2,0,61.9Z"/>
  <path d="M1046.3,354.7c-15.2-.3-19.4-13.9-24-26.2l-67.1-200.7h-79.1s-66.3,198.7-66.3,198.7c-4.5,12-8.9,27.9-24.2,28.2l-15.9.3v34.2s115.8,0,115.8,0v-34.2c-6.9-.2-31.4.6-34.9-5.4-3.6-6.3,7.6-34.9,9.9-43.5h80.3c0,0,8.5,29.9,8.5,29.9,1.3,4.7,2.4,9.5,1.2,13.8-1.7,6.1-26.5,4.8-32.9,5.2v34.3s143.7,0,143.7,0l.2-34.2-15.3-.3ZM871.8,271.3l28.3-85.3,28.8,85.1-57.1.2Z"/>
  <path d="M1243.6,209.4c-16.8-9.6-36.2-12.8-55.2-9.2-15.1,4.3-26.7,13.1-38.2,25l-.3-97.5h-97.8s0,31.3,0,31.3l20.7.3c6.2,0,11.4,4.6,11.4,11.9l.2,218.1h44.2c0-.1,11.4-24.2,11.4-24.2,8.3,11.8,18.9,21.2,33,25.7,18.2,5.8,37.4,6,56.3,0,39.4-12.6,52-53.7,52.6-90.9.6-33.9-7.9-71.6-38.4-90.6ZM1210.4,325.2c-2.4,17.4-10.2,36.5-29.9,36.1-35.5-.7-31.9-68.8-28.6-92.2,2.2-15.6,8.9-34.8,26.7-36.4,39.1-3.4,35.1,68.1,31.8,92.5Z"/>
</svg>