<?xml version="1.0" encoding="UTF-8"?>
<svg id="Layer_1" xmlns="http://www.w3.org/2000/svg" version="1.1" viewBox="0 0 600 200">
  <!-- Generator: Adobe Illustrator 30.1.0, SVG Export Plug-In . SVG Version: 2.1.1 Build 136)  -->
  <defs>
    <style>
      .st0 {
        fill: #003143;
      }
    </style>
  </defs>
  <g>
    <path class="st0" d="M16.4,102.4c2.7,32.5,30,58,63.2,58s60.5-25.5,63.2-58h-23.4c-.7,0-1.3,0-2,.3l-9.4,2c-5.6,1.2-11.5,1.2-17.1,0l-9.4-2c-.6-.2-1.3-.3-2-.3H16.4Z"/>
    <path class="st0" d="M142.4,88.7h-12.5c-.3,0-.6,0-.9,0l-8.7,1.2c-13.9,1.9-27.9,1.9-41.8,0l-8.7-1.2c-.3,0-.6,0-.9,0H16.7c-.3,2.3-.5,4.6-.5,6.9h55.2c.7,0,1.4,0,2.1-.2l6.4-1c12.4-1.9,25.8-1.9,38.2,0l6.5,1c.7.1,1.4.2,2.1.2h16.3c0-2.3-.2-4.6-.5-6.9Z"/>
    <path class="st0" d="M133.7,81.8h7.5c-.6-2.3-1.3-4.6-2.1-6.9h-6.2c-1.2,0-2.3,0-3.5.2l-5.8.7c-16,2-33.9,2-49.9,0l-5.8-.7c-1.1-.1-2.3-.2-3.5-.2H20.1c-.8,2.2-1.5,4.5-2.1,6.9h47.2c.6,0,1.2,0,1.7-.1l10.3-1.3c13.7-1.7,30.8-1.7,44.5,0l10.3,1.3c.6,0,1.1.1,1.7.1Z"/>
    <path class="st0" d="M23.1,68h44.5c.7,0,1.5,0,2.2-.2l6.8-1.1c14.5-2.4,30.1-2.4,44.6,0l6.8,1.1c.7.1,1.5.2,2.2.2h5.7c-1.2-2.4-2.6-4.7-4.1-6.9h-5c-1.1,0-2.3,0-3.4.2l-7.2.9c-11.3,1.4-22.6,1.4-33.9,0l-7.2-.9c-1.1-.1-2.3-.2-3.4-.2H27.2c-1.5,2.2-2.9,4.5-4.1,6.9Z"/>
    <path class="st0" d="M119,47.4H40.1c-2.6,2.1-5.1,4.4-7.4,6.9h46c.9,0,1.8-.2,2.6-.5l3.3-1.4c9.4-3.9,19.2-3.9,28.6,0l3.3,1.4c.8.3,1.7.5,2.6.5h7.1c-2.3-2.5-4.8-4.8-7.4-6.9Z"/>
    <path class="st0" d="M108.3,40.5c-8.6-4.4-18.4-6.9-28.7-6.9s-20.1,2.5-28.7,6.9h57.5Z"/>
  </g>
  <path class="st0" d="M549.9,94.3h8v21.9c0,9.6,3.7,13.3,14.1,13.3h8.9v-12.3h-4.2c-3.5,0-4.6-1.1-4.6-3.8v-19h8.9v-11.4h-9.5v-14.9h-13.4v14.9h-8v11.4ZM503.1,114.5c1.5,8.8,8.2,15.8,23,15.8s22.1-4.6,22.1-15.5-9.5-12.6-20.3-14.4c-6.1-1-9.6-1.4-9.6-4.2s1.9-4.1,6.3-4.1,7.6,1.3,8.4,4.5h13.7c-1-7.8-7.8-14.9-22.1-14.9s-20,5.8-20,14.8,8.8,12.7,20.6,14.8c6.6,1.2,9.3,1.8,9.3,4.7s-3.3,3.9-7.6,3.9-9-2.2-10-5.4h-13.9ZM463,106c0-9.3,3.8-13.4,10.3-13.4s10.3,4.2,10.3,13.4-3.8,13.4-10.3,13.4-10.3-4.2-10.3-13.4ZM448.7,106c0,18.9,11.5,24.1,21.7,24.1s10.4-1.6,13.6-5.1v4h13.3v-46h-11.9l-1.2,4c-3.4-3.5-8.9-5.1-13.8-5.1-10.2,0-21.7,5.2-21.7,24.1ZM428.2,129h14v-64.6h-14v64.6ZM386.8,106c0-9.3,3.8-13.4,10.3-13.4s10.3,4.2,10.3,13.4-3.8,13.4-10.3,13.4-10.3-4.2-10.3-13.4ZM373,144.5h13.8v-19c3.3,3.2,8.4,4.6,13.1,4.6,10.2,0,21.7-5.2,21.7-24.1s-11.5-24.1-21.7-24.1-10.5,1.6-13.8,5.1l-1.2-4h-11.9v61.6ZM331.5,106c0-9.3,3.8-13.4,10.3-13.4s10.3,4.2,10.3,13.4-3.8,13.4-10.3,13.4-10.3-4.2-10.3-13.4ZM317.3,106c0,18.4,13.8,24.3,24.5,24.3s24.5-5.9,24.5-24.3-13.8-24.3-24.5-24.3-24.5,5.9-24.5,24.3ZM296.8,129h14v-64.6h-14v64.6ZM255.4,106c0-9.3,3.8-13.4,10.3-13.4s10.3,4.2,10.3,13.4-3.8,13.4-10.3,13.4-10.3-4.2-10.3-13.4ZM241.1,106c0,18.4,13.8,24.3,24.5,24.3s24.5-5.9,24.5-24.3-13.8-24.3-24.5-24.3-24.5,5.9-24.5,24.3ZM207.2,130.3c12.6,0,26.6-7,28.5-23.5h-15c-1.2,6.4-5.4,11-13.4,11s-16.5-7.8-16.5-21.2,5.9-21,16.1-21,12.4,5,13.6,11.2h15c-1.8-16.5-15.8-23.7-28.6-23.7s-32,10.4-32,33.6,16.9,33.7,32.3,33.7Z"/>
</svg>