<?xml version="1.0" encoding="UTF-8"?>
<svg xmlns="http://www.w3.org/2000/svg" xmlns:xlink="http://www.w3.org/1999/xlink" width="1080pt" height="1080pt" viewBox="0 0 1080 1080">
<path fill-rule="nonzero" fill="rgb(0%, 63.899231%, 86.698914%)" fill-opacity="1" d="M 138.980469 479.230469 C 138.980469 464.550781 128.171875 458.101562 108.332031 458.101562 L 68.488281 458.101562 L 68.488281 500.523438 L 108.332031 500.523438 C 128.171875 500.523438 138.980469 494.070312 138.980469 479.230469 M 68.488281 407.285156 L 68.488281 448.261719 L 104.460938 448.261719 C 122.527344 448.261719 133.015625 441.324219 133.015625 427.773438 C 133.015625 414.222656 122.527344 407.285156 104.460938 407.285156 Z M 150.917969 480.199219 C 150.917969 499.394531 136.722656 510.363281 108.492188 510.363281 L 56.550781 510.363281 L 56.550781 397.445312 L 105.269531 397.445312 C 130.433594 397.445312 144.949219 408.09375 144.949219 426.484375 C 144.949219 439.386719 138.011719 447.9375 127.6875 452.128906 C 142.210938 455.355469 150.917969 464.875 150.917969 480.199219 "/>
<path fill-rule="nonzero" fill="rgb(0%, 63.899231%, 86.698914%)" fill-opacity="1" d="M 178.171875 397.445312 L 190.105469 397.445312 L 190.105469 510.363281 L 178.171875 510.363281 Z M 178.171875 397.445312 "/>
<path fill-rule="nonzero" fill="rgb(0%, 63.899231%, 86.698914%)" fill-opacity="1" d="M 323.507812 453.90625 C 323.507812 426.964844 303.34375 407.125 276.242188 407.125 C 248.980469 407.125 228.65625 426.964844 228.65625 453.90625 C 228.65625 480.84375 248.980469 500.683594 276.242188 500.683594 C 303.34375 500.683594 323.507812 480.84375 323.507812 453.90625 M 216.878906 453.90625 C 216.878906 421 242.042969 396.476562 276.242188 396.476562 C 310.117188 396.476562 335.441406 420.835938 335.441406 453.90625 C 335.441406 486.976562 310.117188 511.332031 276.242188 511.332031 C 242.042969 511.332031 216.878906 486.8125 216.878906 453.90625 "/>
<path fill-rule="nonzero" fill="rgb(0%, 0%, 0%)" fill-opacity="1" d="M 657.152344 397.445312 L 657.152344 510.363281 L 645.695312 510.363281 L 645.695312 420.03125 L 601.335938 496.007812 L 595.691406 496.007812 L 551.328125 420.515625 L 551.328125 510.363281 L 539.878906 510.363281 L 539.878906 397.445312 L 549.71875 397.445312 L 598.753906 481.167969 L 647.3125 397.445312 Z M 657.152344 397.445312 "/>
<path fill-rule="nonzero" fill="rgb(0%, 0%, 0%)" fill-opacity="1" d="M 773.765625 500.039062 L 773.765625 510.363281 L 693.914062 510.363281 L 693.914062 397.445312 L 771.34375 397.445312 L 771.34375 407.769531 L 705.851562 407.769531 L 705.851562 447.9375 L 764.246094 447.9375 L 764.246094 458.101562 L 705.851562 458.101562 L 705.851562 500.039062 Z M 773.765625 500.039062 "/>
<path fill-rule="nonzero" fill="rgb(0%, 0%, 0%)" fill-opacity="1" d="M 881.34375 453.90625 L 892.800781 453.90625 L 892.800781 496.976562 C 882.152344 506.492188 866.988281 511.332031 851.339844 511.332031 C 816.980469 511.332031 791.816406 486.976562 791.816406 453.90625 C 791.816406 420.835938 816.980469 396.476562 851.503906 396.476562 C 868.601562 396.476562 883.445312 401.964844 893.445312 412.769531 L 886.023438 420.351562 C 876.507812 411 865.214844 407.125 851.988281 407.125 C 824.078125 407.125 803.59375 426.964844 803.59375 453.90625 C 803.59375 480.683594 824.078125 500.683594 851.824219 500.683594 C 862.632812 500.683594 872.636719 498.265625 881.34375 491.972656 Z M 881.34375 453.90625 "/>
<path fill-rule="nonzero" fill="rgb(0%, 0%, 0%)" fill-opacity="1" d="M 992.960938 470.519531 L 965.859375 409.867188 L 938.761719 470.519531 Z M 997.316406 480.199219 L 934.40625 480.199219 L 920.855469 510.363281 L 908.433594 510.363281 L 960.050781 397.445312 L 971.828125 397.445312 L 1023.449219 510.363281 L 1010.867188 510.363281 Z M 997.316406 480.199219 "/>
<path fill-rule="evenodd" fill="rgb(27.799988%, 79.598999%, 86.299133%)" fill-opacity="1" d="M 467.925781 514.117188 C 478.675781 511.363281 488.246094 505.726562 495.851562 498.125 C 506.992188 487.109375 513.808594 471.90625 513.808594 455.128906 C 513.808594 438.347656 506.992188 423.011719 495.851562 411.867188 C 484.707031 400.855469 469.5 393.910156 452.589844 393.910156 C 435.8125 393.910156 420.605469 400.855469 409.59375 411.867188 C 400.417969 421.175781 394.125 433.367188 392.292969 447 C 401.992188 427.859375 421.394531 417.765625 440.792969 418.554688 C 444.59375 417.242188 448.527344 416.589844 452.589844 416.589844 C 463.207031 416.589844 472.777344 420.914062 479.859375 427.992188 C 500.699219 448.835938 492.179688 497.992188 467.925781 514.117188 "/>
<path fill-rule="evenodd" fill="rgb(0%, 64.299011%, 87.098694%)" fill-opacity="1" d="M 410.511719 442.410156 C 413.394531 439.527344 416.542969 437.167969 419.949219 435.332031 C 421.523438 432.582031 423.488281 430.089844 425.71875 427.859375 C 429.914062 423.664062 435.023438 420.390625 440.792969 418.554688 C 421.394531 417.765625 401.992188 427.859375 392.292969 447 C 391.898438 449.621094 391.765625 452.375 391.765625 455.128906 C 391.765625 471.511719 398.191406 486.324219 408.675781 497.339844 C 395.832031 482.523438 394.257812 458.796875 410.511719 442.410156 "/>
<path fill-rule="evenodd" fill="rgb(0%, 53.29895%, 80.39856%)" fill-opacity="1" d="M 419.949219 435.332031 C 416.542969 437.167969 413.394531 439.527344 410.511719 442.410156 C 394.257812 458.796875 395.832031 482.523438 408.675781 497.335938 C 408.9375 497.597656 409.203125 497.859375 409.59375 498.253906 C 411.953125 500.613281 414.445312 502.710938 417.199219 504.675781 C 423.226562 508.476562 430.4375 510.707031 438.566406 510.707031 C 456.65625 510.707031 470.289062 499.695312 476.054688 485.40625 C 469.5 490.386719 461.375 493.273438 452.589844 493.273438 C 442.105469 493.273438 432.535156 489.078125 425.585938 482.128906 C 418.769531 475.316406 414.445312 465.746094 414.445312 455.128906 C 414.445312 447.917969 416.410156 441.101562 419.949219 435.332031 "/>
<path fill-rule="nonzero" fill="rgb(13.699341%, 12.199402%, 12.199402%)" fill-opacity="1" d="M 626.238281 656.5625 C 619.398438 658.496094 613.445312 659.457031 608.375 659.457031 C 599.4375 659.457031 592.601562 656.964844 587.769531 651.8125 C 583.023438 646.746094 580.609375 639.417969 580.609375 629.917969 C 580.609375 620.582031 583.023438 613.339844 587.933594 608.195312 C 592.761719 602.957031 599.523438 600.386719 608.292969 600.386719 C 614.007812 600.386719 619.964844 601.273438 626.160156 602.957031 L 626.160156 610.363281 C 618.351562 607.707031 612.484375 606.421875 608.292969 606.421875 C 602.257812 606.421875 597.507812 608.4375 594.132812 612.546875 C 590.832031 616.722656 589.136719 622.519531 589.136719 630.003906 C 589.136719 637.402344 590.910156 643.199219 594.527344 647.304688 C 598.070312 651.496094 603.148438 653.503906 609.660156 653.503906 C 612.316406 653.503906 615.214844 653.019531 618.273438 652.136719 L 618.273438 633.785156 L 626.238281 633.785156 Z M 626.238281 656.5625 "/>
<path fill-rule="nonzero" fill="rgb(13.699341%, 12.199402%, 12.199402%)" fill-opacity="1" d="M 657.847656 613.742188 L 648.273438 637.96875 L 657.847656 637.96875 L 657.847656 643.847656 L 645.933594 643.847656 L 639.738281 659.457031 L 632.335938 659.457031 L 654.628906 603.203125 L 657.847656 603.203125 Z M 667.425781 637.96875 L 657.847656 613.664062 L 657.847656 613.742188 L 657.847656 603.203125 L 662.519531 603.203125 L 684.488281 659.457031 L 675.875 659.457031 L 669.757812 643.847656 L 657.847656 643.847656 L 657.847656 637.96875 Z M 667.425781 637.96875 "/>
<path fill-rule="nonzero" fill="rgb(13.699341%, 12.199402%, 12.199402%)" fill-opacity="1" d="M 704.597656 659.457031 C 700.816406 659.457031 695.980469 658.65625 690.113281 657.042969 L 690.113281 649.078125 C 696.386719 652.050781 701.621094 653.503906 705.726562 653.503906 C 708.855469 653.503906 711.351562 652.695312 713.289062 651.011719 C 715.226562 649.394531 716.1875 647.226562 716.1875 644.570312 C 716.1875 642.308594 715.539062 640.46875 714.257812 638.933594 C 713.054688 637.402344 710.710938 635.632812 707.332031 633.785156 L 703.46875 631.535156 C 698.640625 628.796875 695.261719 626.21875 693.332031 623.808594 C 691.398438 621.3125 690.347656 618.496094 690.347656 615.273438 C 690.347656 611.007812 691.957031 607.386719 695.101562 604.570312 C 698.242188 601.832031 702.265625 600.386719 707.09375 600.386719 C 711.441406 600.386719 716.027344 601.105469 720.851562 602.558594 L 720.851562 609.882812 C 714.898438 607.546875 710.476562 606.421875 707.570312 606.421875 C 704.839844 606.421875 702.503906 607.140625 700.734375 608.59375 C 698.964844 610.046875 697.996094 611.890625 697.996094 614.148438 C 697.996094 616 698.722656 617.6875 700.007812 619.136719 C 701.296875 620.582031 703.714844 622.277344 707.253906 624.289062 L 711.273438 626.546875 C 716.097656 629.359375 719.484375 631.9375 721.414062 634.425781 C 723.347656 636.835938 724.316406 639.820312 724.316406 643.289062 C 724.316406 648.113281 722.546875 652.050781 718.925781 655.03125 C 715.296875 658.003906 710.550781 659.457031 704.597656 659.457031 "/>
<path fill-rule="nonzero" fill="rgb(13.699341%, 12.199402%, 12.199402%)" fill-opacity="1" d="M 749.617188 659.457031 L 749.617188 609.152344 L 729.65625 609.152344 L 729.65625 603.203125 L 777.457031 603.203125 L 777.457031 609.152344 L 757.578125 609.152344 L 757.578125 659.457031 Z M 749.617188 659.457031 "/>
<path fill-rule="nonzero" fill="rgb(13.699341%, 12.199402%, 12.199402%)" fill-opacity="1" d="M 786.308594 659.457031 L 786.308594 603.203125 L 803.050781 603.203125 L 803.050781 609.398438 C 801.851562 609.238281 800.640625 609.152344 799.179688 609.152344 L 794.199219 609.152344 L 794.199219 629.683594 L 796.773438 629.683594 C 799.113281 629.683594 801.203125 629.433594 803.050781 629.039062 L 803.050781 637.652344 L 801.679688 635.632812 L 794.199219 635.632812 L 794.199219 659.457031 Z M 803.050781 603.203125 L 803.296875 603.203125 C 808.679688 603.203125 812.871094 604.410156 815.769531 606.746094 C 818.589844 609.152344 820.035156 612.625 820.035156 617.125 C 820.035156 624.613281 816.25 630.003906 808.679688 633.144531 L 827.441406 659.457031 L 817.699219 659.457031 L 803.050781 637.652344 L 803.050781 629.039062 C 808.921875 627.59375 811.824219 623.886719 811.824219 617.851562 C 811.824219 613.019531 808.921875 610.203125 803.050781 609.398438 Z M 803.050781 603.203125 "/>
<path fill-rule="nonzero" fill="rgb(13.699341%, 12.199402%, 12.199402%)" fill-opacity="1" d="M 854.980469 659.457031 C 847.175781 659.457031 840.894531 656.800781 836.148438 651.335938 C 831.398438 645.933594 829.066406 638.777344 829.066406 629.917969 C 829.066406 620.988281 831.398438 613.824219 836.226562 608.4375 C 840.972656 603.121094 847.335938 600.386719 855.296875 600.386719 L 855.296875 606.421875 C 849.753906 606.421875 845.402344 608.4375 842.175781 612.625 C 839.050781 616.722656 837.511719 622.519531 837.511719 629.847656 C 837.511719 637.25 839.050781 642.957031 842.175781 647.226562 C 845.316406 651.410156 849.582031 653.503906 855.144531 653.503906 L 855.296875 653.503906 L 855.296875 659.457031 Z M 855.296875 600.386719 C 863.269531 600.386719 869.707031 603.121094 874.453125 608.4375 C 879.28125 613.742188 881.621094 620.910156 881.621094 629.847656 C 881.621094 638.933594 879.28125 646.175781 874.453125 651.496094 C 869.707031 656.726562 863.351562 659.378906 855.296875 659.457031 L 855.296875 653.503906 C 861.011719 653.421875 865.363281 651.410156 868.417969 647.304688 C 871.640625 643.125 873.160156 637.328125 873.160156 629.761719 C 873.160156 622.433594 871.5625 616.722656 868.417969 612.546875 C 865.28125 608.4375 860.929688 606.421875 855.296875 606.421875 Z M 855.296875 600.386719 "/>
<path fill-rule="nonzero" fill="rgb(0%, 68.881226%, 60.758972%)" fill-opacity="1" d="M 904.738281 659.457031 L 904.738281 609.152344 L 884.777344 609.152344 L 884.777344 603.121094 L 932.664062 603.121094 L 932.664062 609.152344 L 912.703125 609.152344 L 912.703125 659.457031 Z M 904.738281 659.457031 "/>
<path fill-rule="nonzero" fill="rgb(0%, 68.881226%, 60.758972%)" fill-opacity="1" d="M 939.996094 659.457031 L 939.996094 603.121094 L 971.464844 603.121094 L 971.464844 609.152344 L 947.964844 609.152344 L 947.964844 627.183594 L 967.605469 627.183594 L 967.605469 633.0625 L 947.964844 633.0625 L 947.964844 653.421875 L 973.078125 653.421875 L 973.078125 659.457031 Z M 939.996094 659.457031 "/>
<path fill-rule="nonzero" fill="rgb(0%, 68.881226%, 60.758972%)" fill-opacity="1" d="M 977.421875 659.457031 L 996.082031 631.210938 L 978.304688 603.121094 L 987.722656 603.121094 L 1001.246094 624.371094 L 1015.488281 603.121094 L 1023.050781 603.121094 L 1005.019531 630.324219 L 1023.449219 659.457031 L 1014.039062 659.457031 L 999.785156 637.082031 L 984.96875 659.457031 Z M 977.421875 659.457031 "/>
<path fill-rule="evenodd" fill="rgb(0%, 68.881226%, 60.758972%)" fill-opacity="1" d="M 536.753906 674.960938 C 530.839844 682.761719 516.386719 680.625 505.125 677.339844 C 500.285156 675.941406 495.9375 674.300781 493.144531 673.148438 C 497.570312 672.824219 501.679688 672.335938 505.125 671.757812 C 511.214844 670.855469 515.234375 669.945312 515.234375 669.945312 L 524.597656 644.082031 C 524.597656 644.082031 515.980469 646.875 505.125 649.085938 C 489.125 652.289062 468.257812 654.34375 462.828125 644.492188 C 455.9375 629.132812 486.574219 606.050781 488.214844 604.820312 C 482.136719 616.730469 478.605469 627.742188 478.605469 627.742188 L 496.171875 648.925781 C 496.171875 648.925781 499.382812 634.550781 505.125 620.753906 C 510.472656 607.777344 518.03125 595.210938 527.140625 595.460938 C 542.417969 597.101562 547.347656 628.722656 548.335938 636.035156 C 541.269531 625.027344 533.964844 616.730469 533.964844 616.730469 L 506.777344 620.914062 C 506.777344 620.914062 546.859375 658.945312 536.753906 674.960938 M 552.933594 643.675781 C 551.449219 628.308594 540.289062 576.234375 519.179688 575.25 C 514.167969 575.011719 509.394531 577.308594 505.125 581.003906 C 500.375 585.105469 496.101562 590.941406 492.414062 597.101562 C 482.636719 603.835938 449.039062 633.734375 447.886719 653.9375 L 447.886719 655.90625 C 448.050781 657.953125 448.546875 659.84375 449.445312 661.652344 C 454.703125 671.675781 470.390625 673.890625 485.085938 673.566406 C 489.9375 675.703125 497.082031 678.324219 505.125 680.625 C 525.09375 686.375 550.390625 690.238281 558.273438 678.410156 C 559.910156 675.941406 560.730469 673.148438 560.902344 670.027344 L 560.902344 666.90625 C 560.492188 659.683594 557.128906 651.386719 552.933594 643.675781 "/>
<path fill-rule="nonzero" fill="rgb(17.599487%, 17.599487%, 17.599487%)" fill-opacity="1" d="M 82.480469 625.585938 C 82.480469 618.941406 78.28125 613.589844 70.667969 613.589844 L 63.980469 613.589844 L 63.980469 637.53125 L 70.667969 637.53125 C 78.144531 637.53125 82.480469 632.183594 82.480469 625.585938 M 60.152344 640.949219 L 60.152344 610.175781 L 70.667969 610.175781 C 80.265625 610.175781 86.449219 616.863281 86.449219 625.585938 C 86.449219 634.351562 80.265625 640.949219 70.667969 640.949219 Z M 60.152344 640.949219 "/>
<path fill-rule="nonzero" fill="rgb(17.599487%, 17.599487%, 17.599487%)" fill-opacity="1" d="M 106.304688 640.949219 L 106.304688 610.175781 L 126.464844 610.175781 L 126.464844 613.589844 L 110.132812 613.589844 L 110.132812 623.507812 L 126.140625 623.507812 L 126.140625 626.921875 L 110.132812 626.921875 L 110.132812 637.535156 L 126.464844 637.535156 L 126.464844 640.949219 Z M 106.304688 640.949219 "/>
<path fill-rule="nonzero" fill="rgb(17.599487%, 17.599487%, 17.599487%)" fill-opacity="1" d="M 170.960938 625.585938 C 170.960938 615.988281 178.019531 609.667969 186.785156 609.667969 C 192.273438 609.667969 196.058594 612.066406 198.734375 615.386719 L 195.6875 617.328125 C 193.753906 614.832031 190.476562 613.082031 186.785156 613.082031 C 180.050781 613.082031 174.929688 618.203125 174.929688 625.585938 C 174.929688 632.871094 180.050781 638.089844 186.785156 638.089844 C 190.476562 638.089844 193.519531 636.332031 195.089844 634.765625 L 195.089844 628.539062 L 184.480469 628.539062 L 184.480469 625.121094 L 198.875 625.121094 L 198.875 636.195312 C 196.011719 639.425781 191.8125 641.546875 186.785156 641.546875 C 178.019531 641.546875 170.960938 635.136719 170.960938 625.585938 "/>
<path fill-rule="nonzero" fill="rgb(17.599487%, 17.599487%, 17.599487%)" fill-opacity="1" d="M 237.042969 619.449219 C 237.042969 615.941406 234.507812 613.589844 230.863281 613.589844 L 222.789062 613.589844 L 222.789062 625.355469 L 230.863281 625.355469 C 234.507812 625.355469 237.042969 622.910156 237.042969 619.449219 M 236.769531 640.949219 L 228.96875 628.722656 L 222.789062 628.722656 L 222.789062 640.949219 L 218.960938 640.949219 L 218.960938 610.175781 L 231.324219 610.175781 C 236.953125 610.175781 241.011719 613.773438 241.011719 619.449219 C 241.011719 624.984375 237.183594 628.03125 232.984375 628.398438 L 241.289062 640.949219 Z M 236.769531 640.949219 "/>
<path fill-rule="nonzero" fill="rgb(17.599487%, 17.599487%, 17.599487%)" fill-opacity="1" d="M 260.910156 628.996094 L 260.910156 610.175781 L 264.785156 610.175781 L 264.785156 628.902344 C 264.785156 634.535156 267.785156 638.089844 273.460938 638.089844 C 279.136719 638.089844 282.179688 634.535156 282.179688 628.902344 L 282.179688 610.175781 L 286.054688 610.175781 L 286.054688 628.953125 C 286.054688 636.609375 281.8125 641.5 273.460938 641.5 C 265.15625 641.5 260.910156 636.566406 260.910156 628.996094 "/>
<path fill-rule="nonzero" fill="rgb(17.599487%, 17.599487%, 17.599487%)" fill-opacity="1" d="M 325.148438 619.449219 C 325.148438 615.988281 322.65625 613.589844 319.011719 613.589844 L 310.9375 613.589844 L 310.9375 625.308594 L 319.011719 625.308594 C 322.65625 625.308594 325.148438 622.910156 325.148438 619.449219 M 307.109375 640.949219 L 307.109375 610.175781 L 319.472656 610.175781 C 325.65625 610.175781 329.117188 614.417969 329.117188 619.449219 C 329.117188 624.476562 325.609375 628.722656 319.472656 628.722656 L 310.9375 628.722656 L 310.9375 640.949219 Z M 307.109375 640.949219 "/>
<path fill-rule="nonzero" fill="rgb(17.599487%, 17.599487%, 17.599487%)" fill-opacity="1" d="M 373.421875 625.585938 C 373.421875 618.386719 368.945312 613.082031 362.070312 613.082031 C 355.148438 613.082031 350.769531 618.386719 350.769531 625.585938 C 350.769531 632.734375 355.148438 638.089844 362.070312 638.089844 C 368.945312 638.089844 373.421875 632.734375 373.421875 625.585938 M 346.800781 625.585938 C 346.800781 616.496094 352.984375 609.667969 362.070312 609.667969 C 371.164062 609.667969 377.390625 616.496094 377.390625 625.585938 C 377.390625 634.671875 371.164062 641.5 362.070312 641.5 C 352.984375 641.5 346.800781 634.671875 346.800781 625.585938 "/>
</svg>
