<?xml version="1.0" encoding="UTF-8"?>
<svg id="Capa_1" xmlns="http://www.w3.org/2000/svg" version="1.1" viewBox="0 0 524 142">
  <!-- Generator: Adobe Illustrator 30.1.0, SVG Export Plug-In . SVG Version: 2.1.1 Build 136)  -->
  <defs>
    <style>
      .st0 {
        fill: #751d79;
      }

      .st1 {
        fill: #009fe6;
      }

      .st2 {
        fill: #020a28;
      }
    </style>
  </defs>
  <g>
    <path class="st0" d="M92.6,43v-19.4h-42.6v45.9s13.1-27.4,42.6-26.5Z"/>
    <path class="st0" d="M50,102v19.4h42.6v-45.9s-13.1,27.4-42.6,26.5Z"/>
  </g>
  <g>
    <path class="st1" d="M104.2,93.7h19.4v-42.6h-45.9s27.4,13.1,26.5,42.6h0Z"/>
    <path class="st1" d="M38,51.2h-19.4v42.6h45.9s-27.4-13.1-26.5-42.6h0Z"/>
  </g>
  <g>
    <path class="st2" d="M160.7,66v-25h3.3v10.3h13v-10.3h3.3v25h-3.3v-11.8h-13v11.8h-3.3Z"/>
    <path class="st2" d="M184.8,53.8c0-4.1,1.1-7.4,3.3-9.7s5.1-3.5,8.6-3.5,4.4.6,6.2,1.7,3.3,2.6,4.2,4.6,1.5,4.2,1.5,6.7-.5,4.8-1.5,6.8-2.5,3.5-4.3,4.5-3.9,1.5-6.1,1.5-4.5-.6-6.3-1.7c-1.9-1.1-3.3-2.7-4.2-4.7-1-2-1.4-4-1.4-6.2h0ZM188.2,53.9c0,3,.8,5.4,2.4,7.1s3.7,2.6,6.1,2.6,4.5-.9,6.1-2.6c1.6-1.8,2.4-4.2,2.4-7.5s-.3-3.8-1-5.3-1.7-2.7-3-3.5-2.8-1.3-4.5-1.3-4.4.8-6,2.4c-1.7,1.6-2.5,4.3-2.5,8.1Z"/>
    <path class="st2" d="M211.9,57.9l3.1-.3c.1,1.3.5,2.3,1,3.1s1.4,1.4,2.5,1.9,2.4.7,3.8.7,2.4-.2,3.3-.6c1-.4,1.7-.9,2.2-1.5.5-.7.7-1.4.7-2.1s-.2-1.5-.7-2.1-1.2-1.1-2.3-1.5c-.7-.3-2.2-.7-4.4-1.2s-3.9-1.1-4.8-1.6c-1.2-.6-2.1-1.4-2.7-2.3s-.9-2-.9-3.1.4-2.4,1.1-3.5c.7-1.1,1.8-1.9,3.1-2.5,1.3-.6,2.9-.9,4.6-.9s3.5.3,4.9.9c1.4.6,2.5,1.5,3.3,2.6.8,1.2,1.2,2.5,1.2,3.9l-3.2.2c-.2-1.6-.7-2.8-1.7-3.6s-2.4-1.2-4.4-1.2-3.5.4-4.4,1.1c-.9.7-1.4,1.6-1.4,2.7s.3,1.6,1,2.2c.6.6,2.3,1.2,5,1.8s4.5,1.1,5.5,1.6c1.5.7,2.5,1.5,3.2,2.5s1,2.2,1,3.6-.4,2.6-1.1,3.8c-.8,1.2-1.9,2.1-3.3,2.7-1.4.7-3,1-4.8,1s-4.2-.3-5.7-1c-1.5-.7-2.7-1.7-3.6-3s-1.3-2.8-1.4-4.5l.3.2Z"/>
    <path class="st2" d="M236.3,66v-25h9.4c1.7,0,2.9,0,3.8.2,1.2.2,2.3.6,3.1,1.2.8.6,1.5,1.4,2,2.4s.8,2.2.8,3.4c0,2.1-.7,3.9-2,5.4s-3.8,2.2-7.3,2.2h-6.4v10.2h-3.4ZM239.6,52.9h6.5c2.1,0,3.7-.4,4.6-1.2s1.3-1.9,1.3-3.4-.3-1.9-.8-2.7c-.5-.7-1.2-1.2-2.1-1.5-.6-.1-1.6-.2-3.1-.2h-6.4v8.9h0Z"/>
    <path class="st2" d="M260.1,66v-25h3.3v25h-3.3Z"/>
    <path class="st2" d="M275.6,66v-22h-8.2v-2.9h19.8v2.9h-8.3v22h-3.3Z"/>
    <path class="st2" d="M285.3,66l9.6-25h3.6l10.2,25h-3.8l-2.9-7.6h-10.5l-2.7,7.6h-3.5ZM292.5,55.7h8.5l-2.6-6.9c-.8-2.1-1.4-3.8-1.8-5.2-.3,1.6-.8,3.2-1.3,4.8l-2.7,7.3h-.1Z"/>
    <path class="st2" d="M311.2,66v-25h3.3v22h12.3v2.9h-15.6,0Z"/>
    <path class="st2" d="M346.6,56.8l4.9,1.6c-.8,2.7-2,4.8-3.7,6.1s-4,2-6.6,2-6-1.1-8.2-3.4c-2.1-2.3-3.2-5.4-3.2-9.3s1.1-7.4,3.2-9.7,5-3.5,8.5-3.5,5.5.9,7.5,2.7c1.1,1.1,2,2.6,2.6,4.6l-5,1.2c-.3-1.3-.9-2.3-1.8-3.1s-2.1-1.1-3.4-1.1-3.4.7-4.5,2c-1.2,1.3-1.7,3.5-1.7,6.5s.6,5.4,1.7,6.8,2.6,2,4.4,2,2.5-.4,3.5-1.3c1-.9,1.7-2.2,2.1-4h-.3Z"/>
    <path class="st2" d="M355.8,66v-25h18.5v4.2h-13.5v5.5h12.5v4.2h-12.5v6.8h14v4.2h-19Z"/>
    <path class="st2" d="M379.1,66v-25h4.9l10.2,16.7v-16.7h4.7v25h-5.1l-10.1-16.3v16.3h-4.7.1Z"/>
    <path class="st2" d="M409.9,66v-20.8h-7.4v-4.2h19.9v4.2h-7.4v20.8h-5.1Z"/>
    <path class="st2" d="M425.6,66v-25h10.6c2.7,0,4.6.2,5.8.7,1.2.4,2.2,1.2,2.9,2.4s1.1,2.5,1.1,3.9-.6,3.4-1.7,4.6c-1.1,1.2-2.8,2-4.9,2.3,1.1.6,2,1.3,2.7,2.1s1.7,2.1,2.9,4.1l3.1,4.9h-6l-3.6-5.4c-1.3-1.9-2.2-3.2-2.7-3.7s-1-.9-1.5-1-1.4-.3-2.5-.3h-1v10.4h-5.2ZM430.7,51.6h3.7c2.4,0,3.9-.1,4.5-.3s1.1-.6,1.4-1.1.5-1.1.5-1.9-.2-1.5-.7-2c-.4-.5-1.1-.8-1.9-1h-7.6v6.3h.1Z"/>
    <path class="st2" d="M473.4,66h-5.5l-2.2-5.7h-10l-2.1,5.7h-5.4l9.7-25h5.3l10,25h.2ZM464.1,56.1l-3.4-9.3-3.4,9.3h6.8Z"/>
    <path class="st2" d="M476.2,66v-24.8h5v20.6h12.5v4.2h-17.6,0Z"/>
  </g>
  <g>
    <path class="st2" d="M159.7,103.4v-20.1h6.9c1.6,0,2.8,0,3.6.3,1.2.3,2.1.7,2.9,1.4,1.1.9,1.9,2,2.4,3.4s.8,3,.8,4.8-.2,2.9-.5,4.1c-.4,1.2-.8,2.2-1.4,2.9-.6.8-1.2,1.4-1.8,1.8-.7.4-1.5.8-2.4,1s-2,.3-3.2.3h-7.3ZM162.3,101h4.3c1.3,0,2.4-.1,3.1-.4.8-.2,1.4-.6,1.8-1,.6-.6,1.1-1.5,1.5-2.5s.5-2.4.5-3.9-.3-3.7-1-4.8-1.5-1.9-2.5-2.3c-.7-.3-1.9-.4-3.4-.4h-4.2v15.4h-.1Z"/>
    <path class="st2" d="M196.3,103.4v-20.1h14.5v2.4h-11.9v6.2h11.1v2.4h-11.1v6.8h12.3v2.4h-15,0Z"/>
    <path class="st2" d="M255.3,103.4v-20.1h4l4.8,14.2c.4,1.3.8,2.3,1,3,.2-.7.6-1.8,1.1-3.2l4.8-14h3.6v20.1h-2.6v-16.8l-5.8,16.8h-2.4l-5.8-17.1v17.1h-2.7Z"/>
    <path class="st2" d="M295.1,103.4v-20.1h14.5v2.4h-11.9v6.2h11.1v2.4h-11.1v6.8h12.3v2.4h-15,.1Z"/>
    <path class="st2" d="M330,103.4v-20.1h2.7l10.6,15.8v-15.8h2.6v20.1h-2.7l-10.6-15.8v15.8h-2.6Z"/>
    <path class="st2" d="M366.6,103.4v-20.1h6.9c1.6,0,2.8,0,3.6.3,1.2.3,2.1.7,2.9,1.4,1.1.9,1.9,2,2.4,3.4s.8,3,.8,4.8-.2,2.9-.5,4.1c-.4,1.2-.8,2.2-1.4,2.9s-1.2,1.4-1.8,1.8c-.7.4-1.5.8-2.4,1s-2,.3-3.2.3h-7.3ZM369.3,101h4.3c1.3,0,2.4-.1,3.1-.4.8-.2,1.4-.6,1.8-1,.6-.6,1.1-1.5,1.5-2.5s.5-2.4.5-3.9-.3-3.7-1-4.8-1.5-1.9-2.5-2.3c-.7-.3-1.9-.4-3.4-.4h-4.2v15.4h0Z"/>
    <path class="st2" d="M402.4,93.6c0-3.3.9-5.9,2.7-7.8s4.1-2.8,6.9-2.8,3.5.4,5,1.3c1.5.9,2.6,2.1,3.4,3.7.8,1.6,1.2,3.4,1.2,5.4s-.4,3.9-1.2,5.5c-.8,1.6-2,2.8-3.5,3.7-1.5.8-3.1,1.2-4.9,1.2s-3.6-.5-5.1-1.4-2.6-2.2-3.4-3.7c-.8-1.6-1.2-3.3-1.2-5h.1ZM405.1,93.6c0,2.4.7,4.3,2,5.7s2.9,2.1,4.9,2.1,3.6-.7,4.9-2.1c1.3-1.4,1.9-3.4,1.9-6s-.3-3.1-.8-4.3c-.6-1.2-1.4-2.2-2.4-2.8-1.1-.7-2.3-1-3.6-1-1.9,0-3.5.6-4.9,1.9-1.4,1.3-2,3.5-2,6.5h0Z"/>
    <path class="st2" d="M439.7,103.4v-2.5l10.3-12.9c.7-.9,1.4-1.7,2.1-2.4h-11.2v-2.4h14.4v2.4l-11.3,13.9-1.2,1.4h12.8v2.4h-15.9,0Z"/>
    <path class="st2" d="M472.5,103.4l7.7-20.1h2.9l8.2,20.1h-3l-2.3-6.1h-8.4l-2.2,6.1h-2.9ZM478.3,95.1h6.8l-2.1-5.6c-.6-1.7-1.1-3.1-1.4-4.2-.3,1.3-.6,2.6-1.1,3.8l-2.2,5.9h0Z"/>
  </g>
</svg>