<svg xmlns="http://www.w3.org/2000/svg" width="448" height="391" viewBox="-36 -36 672 586" fill="none">
<defs>
<filter id="drop-shadow" x="-60" y="-54" width="720" height="636" filterUnits="userSpaceOnUse" color-interpolation-filters="sRGB">
<feFlood flood-opacity="0" result="BackgroundImageFix"/>
<feColorMatrix in="SourceAlpha" type="matrix" values="0 0 0 0 0 0 0 0 0 0 0 0 0 0 0 0 0 0 127 0" result="hardAlpha"/>
<feOffset dy="8"/>
<feGaussianBlur stdDeviation="10"/>
<feComposite in2="hardAlpha" operator="out"/>
<feColorMatrix type="matrix" values="0 0 0 0 0 0 0 0 0 0 0 0 0 0 0 0 0 0 0.38 0"/>
<feBlend mode="normal" in2="BackgroundImageFix" result="effect1_dropShadow"/>
<feBlend mode="normal" in="SourceGraphic" in2="effect1_dropShadow" result="shape"/>
</filter>
</defs>
<g filter="url(#drop-shadow)">
<g transform="scale(0.125)"><ns0:g xmlns:ns0="http://www.w3.org/2000/svg" transform="translate(0.000000,4112.000000) scale(0.050000,-0.050000)" fill="#ffffff" stroke="none">
<ns0:path d="M1720 82135 l1 -105 48 -151 48 -151 31 -287 32 -287 49 -153 48 -154 32 -292 32 -291 50 -167 50 -167 30 -274 30 -273 50 -167 50 -166 30 -274 30 -273 49 -163 49 -163 30 -273 30 -274 50 -165 49 -166 21 -204 c12 -113 36 -284 54 -381 l32 -176 -32 -144 c-18 -79 -41 -226 -53 -327 l-20 -183 -50 -152 -50 -152 -30 -247 -31 -248 -49 -145 -49 -145 -31 -245 -30 -244 -50 -153 -50 -153 -30 -247 -31 -248 -50 -147 -50 -147 -30 -247 -31 -248 -49 -151 -49 -151 -30 -244 -31 -245 -49 -145 -50 -146 -31 -257 -32 -257 -47 -136 -48 -136 -31 -238 c-17 -131 -31 -267 -31 -302 l0 -63 29 -24 28 -24 1107 1 1107 0 54 20 53 20 20 76 c10 42 25 148 33 236 14 172 51 375 98 548 l30 108 32 302 31 302 49 182 50 182 30 298 29 298 50 183 50 183 29 292 30 292 49 205 c28 113 60 294 71 403 l22 198 25 52 c13 29 33 52 44 51 11 0 31 -24 45 -53 l26 -53 20 -227 21 -226 48 -191 49 -191 31 -311 31 -311 32 -118 c60 -224 66 -259 97 -568 l32 -310 48 -187 49 -188 31 -313 32 -312 49 -180 48 -180 22 -210 21 -210 30 -45 29 -45 84 -1 c47 0 562 0 1144 -1 l1060 -1 25 35 26 36 0 64 c0 36 -9 133 -21 216 l-21 151 -49 143 -48 143 -31 248 -30 247 -50 151 -49 151 -30 246 -31 246 -49 151 -49 151 -31 249 -31 249 -50 153 -50 153 -30 247 -31 248 -49 145 -50 146 -31 257 -32 257 -47 137 -48 137 -31 253 -31 253 -50 151 -49 151 -31 251 -31 250 -39 113 c-22 62 -40 140 -40 173 0 34 18 117 39 185 l39 124 31 276 30 276 50 166 50 167 30 273 30 274 50 167 50 167 32 288 31 288 50 165 49 165 30 274 30 273 49 163 49 163 30 273 30 274 50 166 50 167 30 276 31 276 40 128 39 127 1 75 0 75 -1177 0 -1177 0 -12 -255 -13 -255 -39 -161 c-46 -186 -73 -390 -103 -769 l-21 -270 -30 -130 c-57 -245 -69 -331 -99 -700 l-30 -370 -38 -160 c-20 -88 -52 -285 -71 -438 -33 -278 -51 -358 -87 -380 l-18 -12 -23 28 -23 28 -19 167 c-10 92 -28 257 -39 367 -11 110 -38 270 -60 355 l-39 155 -31 335 -31 335 -49 200 -50 200 -30 337 -31 337 -49 193 -49 194 -21 219 c-12 121 -21 272 -21 335 l0 115 -1180 0 -1180 0 0 -105z" />
<ns0:path d="M8440 82145 l1 -95 48 -152 49 -153 30 -277 31 -278 50 -166 50 -167 31 -283 31 -284 49 -161 49 -161 31 -283 31 -282 50 -167 50 -166 30 -274 30 -273 48 -161 49 -161 32 -281 32 -281 49 -161 48 -161 30 -273 c17 -151 40 -305 51 -344 25 -88 26 -222 1 -288 -11 -28 -34 -164 -51 -302 l-30 -250 -50 -153 -50 -153 -30 -244 -31 -245 -49 -145 -49 -145 -31 -248 -30 -247 -50 -153 -50 -153 -30 -244 -31 -245 -49 -145 -49 -145 -31 -248 -30 -247 -50 -153 -50 -153 -31 -250 -31 -250 -49 -140 -49 -140 -31 -257 -32 -257 -48 -139 -48 -138 -32 -256 -31 -255 11 -44 11 -44 35 -13 35 -14 1104 1 1105 0 39 21 39 21 20 65 c12 36 30 164 42 286 l21 220 50 180 49 179 31 300 30 300 32 120 c62 228 67 261 98 557 l30 297 50 185 51 185 29 293 30 294 49 195 49 194 21 217 21 217 25 53 c14 29 34 53 45 52 11 0 31 -23 45 -52 l25 -52 21 -207 22 -208 48 -203 49 -203 31 -307 30 -307 49 -180 48 -180 31 -311 31 -310 50 -190 49 -189 31 -310 30 -310 30 -110 c36 -130 79 -367 106 -587 l20 -157 28 -29 29 -28 1135 -1 1134 -1 29 24 29 24 0 92 c-1 151 -37 363 -90 523 l-49 150 -31 252 -31 253 -49 145 -49 145 -31 248 -30 247 -50 151 -49 151 -30 246 -31 246 -50 153 -50 153 -30 247 -31 248 -49 145 -50 146 -31 257 -32 257 -47 137 -48 137 -31 253 -31 253 -50 151 -49 151 -31 250 -31 250 -42 122 -42 122 44 172 44 172 28 260 29 260 50 170 50 170 29 270 30 270 50 167 50 166 31 283 31 284 49 161 49 161 31 283 31 282 50 167 50 166 30 274 30 273 48 161 49 161 32 284 33 283 38 122 38 122 1 85 0 85 -1170 0 -1170 0 0 -35 c0 -19 -10 -143 -21 -275 l-21 -240 -48 -210 -48 -210 -31 -370 c-30 -370 -42 -456 -99 -700 l-30 -130 -32 -380 -32 -380 -30 -140 c-17 -77 -39 -198 -50 -270 -11 -71 -33 -215 -50 -318 l-29 -189 -22 -27 -22 -26 -26 20 c-33 28 -44 98 -69 430 l-21 280 -49 206 -50 206 -30 332 -31 333 -50 204 -50 204 -30 327 -30 328 -48 200 -49 200 -21 207 c-12 114 -21 256 -21 315 l0 108 -1180 0 -1180 0 0 -95z" />
<ns0:path d="M14880 82151 c0 -49 13 -145 29 -215 l29 -126 31 -411 c30 -400 37 -457 99 -749 l30 -140 31 -417 31 -418 49 -236 49 -236 31 -414 31 -414 49 -236 49 -236 31 -414 31 -414 49 -236 49 -236 31 -414 31 -414 49 -236 49 -236 31 -414 31 -414 49 -236 49 -236 31 -414 31 -414 49 -236 49 -236 31 -414 31 -414 49 -236 49 -236 31 -407 c17 -224 39 -454 50 -511 24 -126 65 -227 106 -261 l31 -25 1555 -1 1555 0 28 27 27 27 29 259 c16 143 47 340 68 439 l40 180 31 417 31 418 49 236 49 236 31 414 31 414 50 237 49 238 31 414 31 414 49 234 48 235 31 414 31 414 49 236 49 236 31 414 31 414 50 237 49 238 31 414 31 414 49 236 49 236 31 414 31 414 49 236 49 236 31 410 31 409 48 246 49 245 21 240 c11 132 21 287 21 345 l0 105 -1130 0 -1130 0 0 -135 c-1 -176 -30 -456 -80 -755 l-40 -240 -30 -530 -30 -530 -40 -250 c-23 -137 -45 -277 -50 -310 -5 -33 -23 -294 -40 -580 l-31 -520 -49 -311 -49 -310 -30 -512 c-29 -489 -47 -664 -89 -887 -29 -155 -60 -521 -82 -970 -11 -225 -29 -463 -39 -527 l-20 -117 -23 -29 -24 -28 -36 33 -37 33 -38 103 c-50 135 -58 198 -93 752 l-29 471 -32 179 c-18 99 -40 230 -50 290 -10 61 -32 317 -49 570 -17 253 -39 510 -49 570 -11 61 -33 185 -49 276 l-31 167 -30 463 c-17 255 -39 514 -50 574 -10 61 -32 190 -50 288 l-31 178 -31 471 -31 472 -39 201 c-51 266 -72 472 -102 1005 l-25 445 -1146 0 -1146 0 0 -89z" />
<ns0:path d="M21680 76254 l0 -5986 26 -36 26 -35 1077 0 1077 1 19 19 c11 11 27 59 37 106 l16 87 1 5750 1 5750 -13 165 -13 165 -1127 0 -1127 0 0 -5986z" />
<ns0:path d="M24813 82087 l-13 -153 0 -5772 0 -5772 21 -75 21 -75 40 -21 40 -21 1072 -1 1071 0 23 23 22 22 5 5999 5 5999 -1147 0 -1147 0 -13 -153z" />
<ns0:path d="M15722 64049 l-288 -26 -172 -41 c-95 -22 -238 -50 -319 -62 l-146 -21 -114 -48 -113 -47 -175 -30 -175 -31 -60 -50 -60 -50 -108 -32 -109 -31 -57 -47 -56 -47 -106 -35 -105 -35 -55 -45 c-30 -25 -85 -61 -124 -81 -65 -33 -106 -65 -310 -240 -44 -38 -120 -103 -168 -144 -150 -129 -342 -322 -342 -344 0 -11 -29 -51 -65 -89 -65 -68 -105 -124 -210 -291 -30 -49 -80 -114 -111 -144 l-55 -55 -37 -107 c-20 -58 -59 -140 -87 -181 l-52 -76 -13 -77 -13 -78 -66 -103 -67 -103 -13 -71 c-7 -38 -39 -134 -71 -213 l-57 -144 -32 -229 -32 -229 -58 -171 -58 -171 -26 -500 -25 -500 -8 -4970 -7 -4970 22 -500 c13 -275 31 -644 40 -820 l18 -320 52 -147 53 -147 29 -238 30 -239 48 -125 c27 -68 63 -180 81 -249 l31 -126 59 -92 58 -92 13 -88 14 -87 55 -85 55 -85 32 -111 32 -112 43 -38 c23 -22 63 -80 89 -130 25 -50 61 -104 79 -119 18 -15 54 -69 79 -119 26 -50 67 -109 91 -131 24 -22 60 -71 80 -110 l36 -70 168 -160 c92 -88 242 -227 334 -310 92 -82 196 -179 233 -214 l65 -65 107 -47 c59 -26 119 -62 134 -80 l26 -32 99 -33 99 -33 58 -48 c31 -27 96 -62 144 -79 48 -17 119 -53 159 -80 l71 -50 178 -31 177 -31 101 -47 101 -47 230 -42 c450 -83 562 -99 854 -123 l296 -24 400 12 400 13 230 30 c127 17 289 44 360 61 72 16 187 38 256 49 l126 19 114 52 114 52 157 23 158 22 72 50 c40 27 126 70 192 96 65 26 137 64 160 85 22 22 92 58 154 81 62 24 125 57 140 74 14 18 66 50 115 71 l89 38 92 81 c50 45 129 114 175 154 46 40 152 138 235 217 83 80 169 154 191 166 l40 21 38 76 c22 42 54 88 72 103 18 15 54 69 80 119 25 50 69 113 98 139 29 27 52 61 52 75 0 15 31 62 70 104 38 43 84 112 102 154 17 42 53 104 78 138 l47 61 32 127 33 127 50 76 51 76 30 117 30 117 50 74 51 74 29 193 29 194 48 140 49 139 22 173 c12 95 38 263 59 373 20 110 49 326 63 480 l27 280 0 5470 0 5470 -26 270 c-15 149 -40 328 -56 399 -16 71 -43 228 -60 348 l-30 219 -40 102 c-22 56 -57 195 -78 309 l-38 206 -49 65 -50 65 -30 114 -29 113 -61 91 -60 91 -13 79 -13 79 -79 115 c-43 63 -78 123 -78 133 0 10 -34 57 -75 104 -153 177 -200 240 -233 304 -19 37 -64 100 -100 140 -36 41 -74 89 -84 108 -10 18 -46 54 -81 80 -216 158 -347 263 -347 275 0 8 -32 32 -71 53 -39 21 -84 58 -100 83 l-30 44 -84 43 c-47 23 -103 58 -125 78 -22 19 -86 50 -142 68 -56 18 -132 55 -168 82 -36 27 -112 64 -168 82 -56 18 -120 49 -142 68 -67 58 -115 76 -271 98 l-149 20 -122 50 -122 50 -228 41 c-125 23 -295 54 -378 69 -82 16 -277 38 -431 50 l-281 22 -389 -2 -389 -3 -288 -26z m939 -3790 l169 -21 44 -29 c25 -16 108 -91 185 -168 l140 -138 12 -57 c8 -31 44 -120 82 -197 l68 -141 19 -309 19 -309 0 -5130 0 -5130 -19 -387 -20 -387 -68 -153 -68 -153 -14 -88 -15 -88 -77 -81 c-43 -45 -78 -87 -78 -93 0 -7 -51 -56 -112 -109 l-113 -97 -161 -26 -161 -26 -162 20 c-88 11 -189 28 -224 40 l-63 20 -138 134 -138 134 -61 110 -61 110 -55 255 c-29 140 -66 360 -82 490 l-28 235 0 5208 -1 5207 32 203 c17 111 54 292 82 402 l50 200 53 87 c77 127 197 257 323 351 l110 81 160 23 c88 13 169 24 181 26 11 1 96 -8 190 -19z" />
<ns0:path d="M85380 64067 c-404 -38 -524 -53 -610 -77 -55 -15 -185 -42 -290 -60 l-190 -32 -107 -49 -108 -49 -127 -20 c-152 -25 -211 -45 -246 -87 -14 -17 -76 -50 -137 -73 -61 -23 -137 -63 -168 -89 l-56 -47 -100 -34 c-55 -18 -106 -41 -112 -51 -6 -10 -62 -48 -125 -85 -63 -37 -150 -101 -194 -142 -44 -42 -117 -108 -163 -149 -84 -74 -99 -88 -186 -168 -133 -123 -247 -252 -281 -316 -20 -40 -69 -110 -109 -157 -39 -47 -71 -97 -71 -112 0 -14 -23 -47 -51 -73 -28 -26 -73 -87 -100 -137 -27 -49 -67 -112 -89 -140 l-40 -50 -36 -130 -37 -130 -51 -74 -51 -75 -13 -88 -14 -88 -55 -87 c-30 -49 -61 -104 -69 -123 -7 -20 -22 -111 -34 -202 l-20 -167 -51 -145 -50 -144 -30 -224 c-49 -369 -108 -927 -127 -1203 l-18 -260 19 -189 c11 -104 32 -248 47 -320 26 -124 53 -361 81 -706 l12 -156 59 -110 59 -109 30 -145 30 -145 50 -95 50 -96 30 -144 30 -145 40 -50 c22 -27 58 -90 81 -140 22 -49 58 -108 78 -130 21 -22 60 -90 87 -151 27 -61 64 -124 84 -140 19 -15 51 -68 72 -116 21 -49 60 -115 88 -148 28 -33 64 -92 80 -130 l29 -71 126 -142 c68 -78 157 -182 197 -232 40 -49 123 -144 184 -210 62 -66 146 -158 187 -206 98 -110 555 -566 877 -874 138 -132 325 -312 417 -400 91 -88 291 -276 444 -417 256 -238 391 -375 1016 -1039 122 -130 294 -312 382 -403 252 -262 310 -327 310 -349 0 -11 27 -51 59 -88 33 -37 77 -109 99 -160 l39 -91 40 -21 40 -22 34 -104 c19 -57 60 -143 90 -191 l56 -88 14 -84 13 -83 58 -103 59 -103 30 -243 c16 -134 47 -308 69 -387 l38 -144 22 -390 21 -391 -22 -249 c-22 -260 -35 -329 -88 -480 -18 -49 -41 -127 -51 -172 l-20 -83 -84 -102 c-46 -57 -90 -103 -98 -103 -9 0 -55 -34 -104 -76 l-88 -77 -238 -23 -238 -23 -186 28 -185 28 -96 80 c-126 106 -263 256 -263 287 0 14 -32 90 -70 168 l-70 142 -30 378 -30 378 0 1234 0 1234 -44 41 -43 41 -62 11 c-33 6 -919 8 -1968 5 l-1907 -6 -38 -47 -38 -47 0 -923 0 -923 20 -330 c22 -366 62 -811 122 -1340 l40 -350 49 -160 49 -160 28 -215 27 -216 51 -74 52 -75 32 -140 32 -140 48 -70 48 -70 30 -129 30 -129 38 -52 c22 -28 59 -91 84 -141 24 -49 65 -111 91 -139 26 -27 60 -81 76 -120 16 -38 54 -92 83 -120 29 -27 66 -80 81 -116 26 -62 128 -196 221 -291 23 -24 99 -88 168 -143 176 -139 317 -258 404 -340 40 -39 86 -70 102 -70 15 0 64 -26 109 -59 l81 -58 102 -30 102 -31 67 -51 67 -51 95 -29 c52 -15 129 -52 170 -80 l75 -52 218 -38 218 -37 90 -40 90 -41 210 -31 c116 -17 269 -44 340 -60 72 -16 247 -41 390 -55 l260 -27 590 1 590 0 240 35 c132 20 365 58 517 85 l278 51 92 47 93 47 162 30 161 30 141 72 c77 40 151 72 163 72 12 0 52 27 90 60 38 33 100 73 138 89 39 16 97 52 131 81 33 28 91 63 127 79 58 24 133 80 233 176 14 14 68 71 120 127 245 265 367 402 399 448 18 28 54 66 79 86 l45 36 31 103 30 103 47 51 48 51 32 96 31 96 49 59 49 58 34 105 c19 58 56 138 82 176 l47 70 30 159 30 158 51 97 51 97 30 158 30 158 48 107 48 106 33 329 34 330 38 120 c21 67 47 198 58 291 l21 170 17 630 16 630 -26 655 -27 656 -52 151 -52 151 -29 192 -29 192 -41 91 c-22 51 -57 176 -78 279 l-38 187 -48 63 -48 63 -35 118 -34 119 -47 61 -46 62 -33 114 -33 113 -40 51 c-22 27 -57 89 -78 137 -21 48 -58 105 -81 126 -24 22 -66 84 -94 139 -28 55 -76 130 -108 166 -31 36 -57 77 -57 91 0 13 -31 58 -70 99 -38 41 -70 83 -70 94 0 16 -393 466 -608 696 -120 128 -222 240 -245 267 -12 15 -39 43 -60 62 -20 19 -77 80 -127 135 -145 160 -1122 1128 -1340 1327 -16 15 -43 42 -60 60 -30 33 -271 265 -873 843 -183 176 -384 374 -445 439 -62 65 -148 156 -192 202 -197 205 -362 394 -380 436 -11 25 -45 76 -76 112 -30 36 -69 97 -85 136 -16 38 -55 99 -87 136 l-58 66 -13 86 -14 87 -73 150 -73 150 0 413 -1 412 64 89 c35 49 78 126 97 172 l33 82 103 61 c57 33 126 79 153 101 l50 40 201 20 200 21 180 -19 c198 -21 267 -41 308 -91 16 -19 63 -51 104 -73 l76 -39 41 -74 c22 -41 59 -99 82 -128 l43 -53 19 -87 20 -87 8 -779 8 -780 31 -30 30 -31 2008 -5 2008 -6 50 46 50 45 -18 360 c-10 198 -27 545 -37 770 l-19 410 -51 166 -51 166 -21 214 c-12 118 -32 268 -43 333 l-20 119 -39 75 c-21 42 -52 142 -69 222 l-30 145 -47 71 -47 70 -34 150 -33 149 -47 80 c-25 44 -57 116 -71 160 l-25 80 -46 50 c-26 28 -69 100 -96 161 -27 61 -65 124 -84 140 -20 16 -56 74 -80 130 -25 55 -60 113 -78 128 -19 16 -48 56 -65 90 l-31 61 -133 125 c-72 68 -141 134 -152 145 -45 45 -108 105 -260 249 l-160 151 -90 33 c-49 19 -113 55 -141 80 l-51 47 -101 30 -100 30 -36 39 -36 40 -113 42 c-61 23 -147 64 -189 92 l-78 51 -188 28 -189 28 -116 49 -116 49 -248 43 c-385 66 -605 95 -897 118 l-269 21 -361 -3 c-199 -2 -392 -6 -431 -10z" />
<ns0:path d="M5880 63880 l-40 -40 0 -7906 0 -7905 -20 -170 -21 -169 -72 -193 -73 -194 -84 -86 c-47 -48 -126 -120 -177 -160 l-92 -74 -135 -16 c-172 -20 -295 -20 -493 1 l-157 16 -73 65 c-40 36 -93 76 -118 89 l-45 23 -41 75 c-22 41 -61 102 -85 136 l-45 61 -36 199 c-20 109 -49 263 -65 342 l-28 144 0 2412 0 2412 -49 49 -49 49 -1941 0 -1941 0 0 -3045 1 -3045 29 -86 30 -86 21 -204 21 -204 60 -116 59 -117 29 -138 29 -139 50 -75 c27 -41 63 -114 80 -162 17 -48 52 -113 79 -144 27 -32 59 -92 73 -133 l24 -76 60 -64 c34 -35 80 -95 103 -133 65 -105 161 -234 245 -329 164 -185 442 -451 537 -516 55 -38 132 -90 170 -116 39 -26 93 -71 122 -99 28 -28 100 -72 160 -98 59 -27 120 -63 135 -81 l26 -32 97 -32 c53 -18 108 -46 122 -62 39 -47 84 -66 236 -98 l141 -29 96 -50 95 -50 144 -30 143 -30 117 -60 116 -60 220 -23 c121 -12 355 -45 520 -72 l300 -50 450 -10 450 -11 200 22 200 22 110 39 110 39 210 23 210 23 120 58 120 59 145 30 145 29 78 52 c43 29 120 64 170 79 l92 28 69 52 c37 29 101 62 142 73 l74 20 49 49 c26 27 91 70 143 97 53 26 108 63 123 81 15 18 55 46 89 63 33 17 88 57 121 88 33 31 92 87 130 123 39 37 99 88 135 113 56 39 186 180 446 483 158 183 213 257 257 345 26 52 54 95 63 95 8 0 34 43 59 95 24 52 66 118 93 147 l49 52 28 105 27 105 52 74 51 74 32 109 c18 60 48 132 67 159 48 70 60 107 92 287 l28 156 52 112 53 111 28 278 c15 154 41 330 57 393 l29 113 21 258 21 258 0 7812 -1 7812 -16 26 -17 27 -78 18 -78 18 -1935 1 -1935 0 -40 -40z" />
<ns0:path d="M23283 63900 c-37 -9 -77 -26 -90 -39 l-23 -23 -6 -10154 -6 -10154 12 -85 12 -85 44 -25 44 -25 1975 -5 1976 -6 49 50 50 49 0 4611 0 4611 43 43 43 43 277 -13 278 -12 94 -40 c52 -22 162 -54 244 -71 138 -29 180 -47 231 -101 11 -12 52 -45 92 -74 l72 -53 66 -186 65 -186 31 -170 31 -170 7 -4040 c3 -2222 6 -4082 6 -4134 l0 -93 31 -32 32 -31 1917 0 1917 0 49 18 49 19 13 34 13 34 -1 3903 -1 3902 -27 493 -27 492 -54 118 c-29 64 -66 178 -82 252 l-29 135 -48 96 c-26 52 -58 135 -71 184 -34 134 -62 196 -92 208 -15 5 -46 47 -70 93 l-42 83 -173 168 c-96 92 -180 168 -188 168 -8 0 -44 26 -80 58 l-66 57 -97 33 c-54 18 -135 55 -180 81 -46 26 -122 59 -169 73 l-86 25 -19 35 -19 35 30 30 30 30 115 24 115 23 61 46 c34 26 97 61 140 79 44 18 106 59 139 90 33 31 80 63 104 70 l45 13 233 244 233 244 29 68 c16 38 54 101 85 140 31 40 68 108 82 152 13 44 45 116 71 160 l46 81 30 179 29 180 59 150 59 150 14 110 c7 61 26 160 41 220 43 172 87 608 110 1099 l21 449 -20 771 c-12 424 -27 807 -33 851 -6 44 -29 148 -50 230 l-37 150 -31 354 -31 355 -57 225 c-32 125 -68 288 -81 364 l-23 138 -38 75 c-22 41 -56 138 -77 214 l-39 140 -52 78 c-28 43 -65 124 -82 179 l-30 101 -42 39 c-24 21 -65 85 -92 141 l-49 104 -28 10 c-15 6 -42 41 -60 77 -19 36 -62 94 -97 127 -34 34 -138 141 -232 238 l-170 177 -60 25 c-33 14 -82 50 -110 79 -27 29 -81 67 -120 83 -38 16 -101 50 -140 77 l-70 47 -130 33 -130 33 -71 48 -71 49 -221 29 c-122 16 -292 47 -379 69 l-158 40 -344 21 -344 21 -3036 -2 -3036 -2 -67 -16z m5227 -3839 l100 -18 114 -68 113 -69 100 -108 99 -109 14 -120 15 -119 59 -180 60 -180 10 -630 10 -630 -21 -260 -21 -260 -49 -120 -49 -120 -13 -110 c-15 -123 -47 -220 -73 -220 -9 0 -35 -36 -58 -79 -22 -44 -69 -112 -103 -152 l-64 -72 -171 -83 -172 -84 -430 -7 -430 -6 -75 22 -74 22 -20 37 -20 37 -2 1816 -1 1815 29 29 c16 16 57 35 92 42 l63 13 434 -6 434 -6 100 -17z" />
<ns0:path d="M34689 63901 c-22 -9 -54 -32 -70 -52 l-29 -35 0 -10209 0 -10208 57 -49 56 -49 1894 6 1895 5 51 34 52 33 14 124 14 124 -4 4572 -3 4573 15 60 c17 72 45 110 78 110 l25 0 23 -52 24 -52 30 -263 c35 -294 39 -318 90 -474 l37 -111 31 -251 31 -251 49 -151 49 -151 31 -249 31 -249 49 -151 49 -151 31 -252 31 -252 50 -151 49 -151 31 -249 30 -249 50 -151 49 -151 31 -249 30 -249 50 -151 49 -151 31 -249 30 -249 50 -151 49 -151 31 -249 30 -248 50 -159 51 -159 30 -241 29 -241 51 -159 50 -159 30 -246 30 -247 49 -150 50 -150 30 -250 31 -250 50 -152 50 -151 28 -243 29 -242 32 -63 33 -62 68 -29 68 -28 1845 0 1846 0 76 21 76 21 19 51 19 50 0 10163 c0 5590 -6 10182 -12 10205 l-11 41 -43 29 -44 29 -1882 5 -1883 6 -43 -36 -43 -35 0 -4600 0 -4600 -18 -77 c-10 -43 -27 -87 -38 -98 l-19 -19 -20 37 c-11 21 -35 143 -53 272 l-32 233 -49 131 -50 131 -31 271 -32 270 -49 164 -49 164 -30 256 -29 255 -49 148 -48 149 -32 266 -31 267 -50 155 -50 156 -29 255 -30 255 -51 169 -51 169 -29 255 -30 255 -49 155 -49 156 -32 260 -32 260 -49 156 -49 155 -31 265 -30 264 -50 156 -49 155 -30 259 -30 259 -49 155 -49 156 -33 267 -32 267 -48 148 -49 148 -31 264 -30 265 -49 160 c-26 89 -58 213 -71 276 l-22 115 -30 30 -30 30 -2003 -1 -2004 -2 -41 -16z" />
<ns0:path d="M47960 63880 l-40 -40 0 -35 c-1 -74 -42 -405 -80 -635 l-40 -240 -30 -520 c-17 -286 -35 -547 -40 -580 -5 -33 -27 -172 -50 -310 l-40 -250 -30 -520 c-17 -286 -35 -547 -40 -580 -5 -33 -27 -172 -50 -310 l-40 -250 -30 -520 -31 -520 -49 -310 -49 -310 -31 -520 -31 -520 -40 -250 c-22 -137 -44 -277 -49 -310 -5 -33 -23 -294 -40 -580 l-31 -520 -40 -250 c-22 -137 -44 -277 -49 -310 -5 -33 -23 -294 -40 -580 l-31 -520 -31 -190 c-61 -375 -68 -437 -98 -950 l-31 -520 -31 -190 c-61 -374 -68 -437 -99 -959 l-31 -529 -38 -221 c-48 -281 -75 -550 -90 -891 -15 -346 -42 -612 -91 -900 l-39 -230 -29 -510 c-30 -508 -43 -633 -100 -973 l-31 -177 -30 -520 c-30 -512 -37 -573 -98 -950 l-31 -190 -21 -360 c-11 -198 -30 -479 -42 -625 l-22 -265 11 -46 12 -47 51 -24 52 -23 1848 0 1848 0 53 24 52 24 28 53 27 54 21 167 c11 93 34 456 51 808 30 636 39 740 99 1200 18 132 39 399 47 593 l15 352 27 33 28 33 1185 -6 1185 -5 39 -36 40 -35 12 -107 c7 -59 27 -362 43 -674 l31 -568 30 -200 c62 -412 70 -493 98 -1028 l30 -547 30 -47 31 -46 75 -21 75 -21 1760 0 1760 0 76 21 76 21 17 45 c9 25 14 67 9 94 -4 27 -21 135 -37 239 l-31 190 -30 532 c-16 292 -34 558 -40 590 -5 32 -27 175 -49 318 l-40 260 -31 530 -31 530 -49 310 -49 310 -31 530 -31 530 -31 200 c-17 110 -39 255 -49 323 -10 68 -32 360 -49 650 l-31 527 -49 310 -49 310 -31 530 -31 530 -40 260 c-22 143 -44 286 -49 317 -6 31 -24 300 -41 597 l-30 540 -39 223 c-45 268 -73 549 -90 913 -16 358 -44 642 -90 911 l-38 222 -31 540 c-17 297 -35 566 -40 599 -6 32 -28 175 -50 318 l-40 260 -31 530 -31 530 -49 310 -49 310 -31 530 -31 530 -31 200 c-17 110 -39 255 -49 323 -10 68 -32 360 -49 650 l-31 527 -49 310 -49 310 -31 530 c-17 292 -39 583 -50 647 l-19 118 -31 48 -32 49 -50 19 -51 19 -3368 0 -3369 0 -40 -40z m3473 -3540 l24 -50 21 -370 21 -370 40 -270 40 -270 31 -588 31 -589 49 -344 49 -344 31 -588 31 -587 49 -341 49 -341 31 -587 31 -588 49 -342 49 -343 31 -587 31 -588 49 -343 49 -342 31 -590 c17 -325 40 -644 50 -709 11 -65 20 -144 20 -176 l0 -56 -58 -59 -59 -58 -819 0 -819 0 -23 28 c-13 15 -32 55 -41 89 l-18 61 19 366 c10 201 33 474 50 606 60 474 68 569 98 1230 l30 670 50 400 50 400 30 670 30 670 50 400 50 400 30 660 c16 363 34 696 40 740 5 44 28 229 50 410 l40 330 30 652 c26 582 57 991 80 1078 5 17 18 143 30 280 l23 250 30 46 30 46 43 -6 43 -6 24 -50z" />
<ns0:path d="M58209 63901 c-22 -9 -54 -32 -70 -52 l-29 -35 0 -10209 0 -10208 57 -50 57 -49 2823 7 2823 7 260 42 c143 23 368 53 500 66 320 31 411 50 525 107 l95 49 180 33 180 34 70 41 c38 22 115 58 170 80 l100 39 50 47 c28 27 82 61 120 77 39 16 105 57 147 90 42 34 96 67 120 75 38 12 97 57 220 168 31 28 103 107 288 315 41 47 108 119 148 160 40 41 86 102 103 135 16 33 49 77 72 98 l42 39 30 100 30 100 40 43 c22 24 62 98 89 166 26 68 67 148 90 177 l42 53 32 112 c18 62 53 153 78 204 l46 91 32 169 32 168 50 95 49 95 31 195 c17 107 53 286 80 397 l50 202 30 298 c16 164 50 505 74 758 l45 460 0 5250 0 5250 -37 330 c-20 182 -53 462 -74 624 l-38 294 -49 141 c-27 78 -55 184 -63 236 -22 162 -50 252 -103 330 l-51 75 -26 112 -26 112 -50 73 -50 73 -23 90 -23 90 -56 60 c-31 33 -72 92 -91 130 -20 39 -66 104 -103 145 -37 41 -67 85 -67 98 0 40 -248 308 -450 486 -44 39 -119 106 -166 151 -47 44 -93 80 -102 80 -9 0 -52 32 -94 71 l-77 70 -97 29 -97 29 -58 48 -58 49 -105 35 c-58 19 -124 50 -146 69 -63 55 -110 73 -258 99 l-139 23 -115 49 -116 49 -196 30 c-108 17 -367 55 -576 84 l-380 53 -2900 6 -2900 5 -41 -17z m5033 -3658 l152 -14 79 -54 c43 -30 121 -69 173 -87 l95 -32 32 -63 c18 -35 54 -88 79 -119 l47 -56 22 -84 c12 -46 39 -131 60 -188 21 -57 49 -174 62 -260 l25 -156 6 -5570 7 -5569 -19 -136 -19 -136 -75 -175 -75 -174 -91 -105 -92 -104 -89 -31 c-49 -17 -122 -53 -163 -81 l-73 -51 -257 -21 -258 -20 -280 7 -280 6 -45 30 -45 30 0 6585 0 6586 65 41 65 41 370 -13 c204 -7 438 -19 522 -27z" />
<ns0:path d="M71377 63898 l-53 -20 -12 -47 c-7 -26 -21 -199 -32 -384 -11 -185 -25 -364 -30 -397 -5 -33 -27 -172 -50 -310 l-40 -250 -30 -520 c-30 -513 -37 -576 -98 -950 l-31 -190 -31 -520 c-17 -286 -35 -547 -40 -580 -5 -33 -27 -172 -50 -310 l-40 -250 -30 -520 c-17 -286 -35 -547 -40 -580 -5 -33 -27 -172 -50 -310 l-40 -250 -30 -520 -31 -520 -49 -310 -49 -310 -31 -520 -31 -520 -40 -250 c-22 -137 -44 -277 -49 -310 -5 -33 -23 -294 -40 -580 l-31 -520 -40 -250 c-22 -137 -44 -277 -49 -310 -5 -33 -23 -294 -40 -580 l-31 -520 -31 -190 c-61 -375 -68 -437 -98 -950 l-31 -520 -31 -190 c-61 -374 -68 -437 -99 -959 l-31 -529 -38 -221 c-48 -284 -75 -553 -90 -891 -16 -348 -43 -613 -91 -900 l-39 -230 -29 -514 c-32 -538 -33 -548 -93 -913 l-38 -228 -24 -440 -24 -440 47 -38 47 -38 1902 6 1902 5 33 17 c19 9 40 31 48 50 7 18 26 276 40 573 27 531 40 681 98 1120 l29 220 31 639 30 639 31 31 31 31 1196 5 1196 6 31 -36 31 -35 23 -430 23 -430 48 -340 49 -340 31 -560 c35 -634 60 -876 108 -1020 l33 -99 50 -25 50 -25 1835 -1 1835 0 42 42 43 43 -14 182 c-8 101 -28 269 -44 373 -16 105 -38 245 -48 313 -10 68 -32 360 -49 650 l-31 527 -49 310 -49 310 -31 530 -31 530 -31 200 c-17 110 -39 255 -49 323 -10 68 -32 360 -49 650 l-31 527 -49 310 -49 310 -31 527 c-17 290 -39 582 -49 650 -10 68 -33 213 -50 323 l-31 200 -31 537 -30 537 -39 223 c-45 269 -73 551 -90 913 -17 361 -44 644 -90 911 l-38 222 -31 538 -31 539 -31 200 c-17 110 -40 255 -50 323 -10 68 -32 360 -49 650 l-31 527 -49 310 -49 310 -31 530 -31 530 -31 200 c-17 110 -39 255 -49 323 -10 68 -32 360 -49 650 l-31 527 -49 310 -49 310 -31 527 c-17 290 -39 582 -49 650 -10 68 -33 213 -50 323 l-31 200 -20 390 -21 390 -20 73 -19 73 -35 17 -35 17 -3390 4 -3390 3 -53 -19z m3430 -3543 l29 -45 13 -120 c7 -66 30 -247 52 -401 l38 -282 31 -586 31 -586 49 -342 49 -343 31 -590 31 -590 49 -341 49 -341 30 -579 c29 -555 49 -769 90 -1009 25 -144 56 -521 71 -870 15 -347 45 -724 71 -870 41 -237 59 -443 89 -1005 l31 -585 31 -200 c17 -110 40 -286 52 -392 l22 -192 -14 -54 -13 -55 -71 -29 -70 -29 -811 5 -811 6 -40 50 -41 50 12 210 c6 116 25 300 41 410 37 249 67 641 82 1070 14 402 45 848 70 1010 42 268 61 511 90 1150 l32 670 38 300 c47 364 74 711 90 1150 16 442 46 849 80 1080 34 230 64 638 80 1070 16 439 45 820 80 1070 34 242 70 721 70 941 l0 150 31 45 31 44 39 0 38 0 28 -45z" />
<ns0:path d="M83090 40867 c-33 -18 -78 -48 -100 -68 l-40 -35 -109 -32 -109 -32 -74 -51 -74 -52 -103 -27 -103 -27 -66 -50 -65 -50 -110 -32 -111 -32 -66 -49 -66 -49 -109 -32 -108 -31 -82 -59 c-44 -32 -91 -59 -103 -59 -12 0 -55 -10 -96 -21 l-75 -21 -56 -47 -57 -47 -111 -33 -111 -32 -66 -49 -66 -49 -112 -32 -112 -33 -61 -46 -61 -46 -108 -32 -108 -32 -74 -51 -74 -52 -100 -26 -101 -27 -66 -50 -67 -50 -112 -33 -112 -32 -66 -49 -66 -49 -102 -30 -102 -29 -68 -51 -68 -50 -112 -32 -112 -33 -61 -46 -61 -46 -108 -32 -108 -32 -74 -51 -74 -52 -100 -26 -101 -27 -67 -51 -67 -51 -92 -24 c-51 -14 -106 -35 -122 -47 -16 -12 -54 -57 -82 -99 l-53 -78 0 -1197 0 -1197 40 -40 40 -40 73 0 74 0 141 49 142 49 255 31 255 31 152 50 151 49 259 32 259 32 144 49 144 49 252 29 253 30 151 49 151 49 252 31 252 31 153 50 153 50 253 30 252 29 143 49 142 48 262 32 263 32 114 40 c63 22 164 49 225 60 l109 21 26 26 26 26 0 1955 1 1956 -24 28 -23 28 -42 -1 c-24 0 -70 -15 -103 -32z" />
<ns0:path d="M32420 35329 c-16 -5 -288 -22 -602 -37 l-573 -28 -111 -53 -111 -52 -171 -28 -172 -28 -112 -51 -112 -51 -129 -23 -129 -23 -57 -47 c-31 -26 -100 -66 -153 -89 -54 -23 -116 -58 -138 -79 -22 -21 -100 -64 -173 -97 -73 -32 -138 -69 -146 -81 -8 -13 -48 -40 -90 -61 l-76 -39 -258 -258 c-142 -142 -317 -324 -390 -406 l-132 -148 -14 -50 c-8 -27 -40 -82 -71 -122 -31 -39 -72 -107 -89 -150 -18 -43 -55 -101 -81 -128 l-48 -51 -30 -85 c-17 -46 -54 -116 -84 -154 l-53 -70 -27 -132 -28 -131 -49 -84 -50 -84 -29 -140 -30 -139 -60 -120 -60 -120 -21 -181 -21 -182 -49 -165 -50 -165 -31 -273 c-63 -554 -109 -1063 -129 -1411 l-21 -357 0 -4733 1 -4733 19 -250 c19 -248 48 -505 121 -1054 l38 -284 49 -118 50 -119 31 -203 30 -204 49 -64 48 -64 34 -115 33 -115 47 -56 46 -56 34 -114 33 -114 45 -55 c25 -30 62 -97 81 -149 l36 -95 47 -30 c26 -17 62 -59 79 -94 18 -34 54 -81 80 -105 27 -23 69 -71 94 -106 25 -35 76 -107 113 -160 80 -113 243 -277 342 -345 39 -27 111 -83 160 -125 50 -43 122 -104 160 -137 39 -33 111 -95 160 -137 l90 -76 80 -26 80 -25 51 -47 51 -48 103 -30 103 -31 60 -50 59 -50 107 -37 c58 -20 143 -56 188 -80 l82 -43 180 -29 179 -29 109 -49 108 -49 120 -20 c66 -11 228 -25 360 -32 132 -7 373 -30 536 -51 l296 -39 224 29 c123 16 422 43 664 60 242 17 472 38 510 47 39 9 124 36 190 60 l120 43 205 28 205 28 85 50 c47 28 139 66 205 84 l120 35 62 46 61 46 118 31 117 30 51 41 c28 22 92 59 141 82 50 22 113 62 140 88 28 26 87 65 133 88 l82 41 12 30 c6 17 45 48 87 69 l77 39 179 179 c99 98 214 218 255 267 100 117 201 232 279 318 l63 70 46 119 c26 65 64 137 85 160 l39 41 33 115 33 115 47 56 46 56 34 116 c19 64 55 158 81 209 l47 93 30 210 31 210 61 174 61 174 20 436 c12 240 31 513 43 606 l23 170 7 2004 7 2004 -47 31 -48 31 -1973 1 -1973 1 -40 -22 -40 -21 0 -1829 0 -1829 -31 -225 c-17 -124 -53 -343 -81 -486 l-51 -260 -35 -50 c-20 -27 -52 -81 -71 -118 -19 -37 -81 -114 -137 -170 l-101 -101 -112 -48 c-142 -60 -294 -103 -367 -103 -95 0 -282 56 -405 120 l-114 61 -78 79 c-42 44 -86 80 -96 80 l-20 0 -32 115 -33 115 -50 78 -50 77 -17 133 c-9 72 -26 308 -38 522 l-21 390 0 4960 0 4960 30 457 29 456 69 154 c37 84 74 175 83 202 8 27 47 83 87 124 39 40 90 96 113 122 l41 49 159 35 c87 20 183 48 213 63 l54 28 78 0 77 0 129 -39 c70 -22 164 -49 208 -60 l80 -21 110 -107 c61 -59 135 -148 165 -197 l54 -90 32 -148 c18 -81 51 -278 74 -438 l43 -290 6 -1570 6 -1570 42 -35 42 -35 1948 0 1948 0 40 40 40 40 0 1685 -1 1685 -19 510 -18 510 -30 140 c-16 78 -39 166 -51 197 -11 30 -39 155 -61 277 l-40 222 -48 82 -47 82 -25 120 c-27 131 -61 209 -108 248 l-30 25 -31 107 -31 107 -48 57 c-26 31 -62 92 -81 136 -18 44 -59 107 -90 140 -31 33 -71 89 -89 125 -18 36 -41 65 -50 65 -9 0 -48 47 -88 105 -74 110 -386 434 -536 557 -49 39 -126 96 -173 125 -47 29 -85 62 -85 73 0 11 -44 42 -99 69 -54 28 -104 60 -112 73 -8 12 -81 53 -162 90 -81 37 -147 75 -147 85 0 22 -145 83 -198 83 -21 0 -88 26 -149 58 l-111 59 -155 32 -155 32 -81 47 -81 48 -130 25 c-72 14 -175 42 -230 63 -54 22 -144 47 -200 57 -55 10 -334 32 -620 49 -286 17 -560 34 -610 39 -49 4 -103 4 -120 0z" />
<ns0:path d="M71720 35319 c-126 -9 -396 -26 -600 -36 l-370 -19 -110 -51 -110 -51 -200 -32 -200 -32 -110 -49 c-60 -26 -154 -58 -207 -69 -111 -24 -194 -63 -232 -109 l-26 -31 -105 -31 -105 -30 -35 -39 -35 -39 -106 -40 c-154 -57 -293 -161 -678 -508 -263 -237 -354 -337 -408 -444 -22 -45 -55 -94 -73 -109 -18 -15 -54 -69 -80 -119 -25 -50 -69 -113 -98 -139 -29 -27 -52 -59 -52 -70 0 -12 -35 -74 -78 -137 l-79 -116 -21 -100 -22 -99 -48 -75 -49 -75 -33 -130 -33 -130 -56 -85 -56 -85 -24 -159 -23 -160 -49 -143 -48 -143 -30 -238 -29 -238 -40 -144 -41 -145 -23 -310 -24 -310 -9 -4650 -8 -4650 23 -780 22 -780 19 -130 c10 -71 32 -179 48 -238 l30 -108 31 -310 31 -309 70 -269 c38 -147 69 -288 69 -312 0 -25 27 -101 61 -170 l61 -125 29 -149 28 -150 48 -95 c26 -52 62 -145 80 -206 l32 -112 40 -36 40 -36 33 -92 c19 -51 60 -126 91 -166 31 -41 75 -124 98 -185 23 -62 49 -112 57 -112 9 0 44 -43 78 -95 76 -115 180 -242 371 -453 228 -251 305 -317 463 -397 55 -28 118 -70 140 -94 21 -25 71 -58 110 -74 38 -16 93 -51 121 -78 l50 -48 117 -40 c64 -22 144 -58 179 -79 l63 -38 130 -25 130 -24 153 -68 153 -67 317 -21 c174 -11 425 -38 557 -59 l240 -38 130 27 c161 34 439 65 736 82 l227 14 113 60 114 61 115 27 115 27 75 49 75 49 129 30 128 30 47 51 c26 28 56 51 67 51 10 0 53 30 94 67 41 37 116 92 165 123 50 31 102 73 116 93 15 21 54 52 89 69 34 18 91 61 127 95 36 35 82 78 102 97 65 62 215 264 321 434 30 49 78 112 107 141 29 28 67 81 86 117 l34 66 54 -6 54 -6 33 -103 c18 -57 55 -142 83 -190 l50 -87 13 -80 14 -80 62 -108 62 -109 25 -108 25 -109 50 -73 50 -73 33 -130 33 -130 67 -102 c37 -55 81 -112 98 -126 l30 -26 716 1 c394 1 727 2 740 2 14 1 43 21 65 45 l41 44 0 5885 0 5885 -45 52 -45 51 -2420 0 -2420 0 -25 -34 c-13 -19 -29 -62 -36 -95 -6 -34 -8 -805 -5 -1714 l6 -1652 26 -32 27 -31 488 -7 488 -6 32 -32 32 -33 -2 -1507 -2 -1508 -21 -220 c-11 -121 -38 -296 -59 -390 -21 -93 -48 -231 -59 -306 l-21 -136 -70 -136 c-38 -75 -69 -145 -69 -154 0 -10 -48 -65 -107 -123 l-106 -105 -138 -38 c-77 -21 -188 -57 -249 -80 l-110 -41 -80 0 -80 0 -110 41 c-60 22 -174 60 -253 84 l-142 44 -100 110 -99 110 -15 50 c-9 28 -42 112 -75 188 l-60 137 -28 191 c-16 105 -47 329 -69 498 l-39 308 0 5079 0 5079 62 355 61 355 75 160 c41 88 83 179 94 203 10 23 68 87 128 142 l110 99 70 21 c39 12 116 27 173 34 57 6 155 30 218 51 64 22 141 40 171 40 31 0 104 -17 162 -39 58 -21 158 -48 221 -61 l115 -23 35 -50 c19 -28 59 -73 88 -101 l54 -50 81 -163 82 -163 28 -210 c16 -115 38 -322 50 -460 l22 -250 0 -826 0 -826 30 -59 31 -58 59 -31 59 -31 1860 6 1860 5 64 64 63 63 -23 247 c-13 135 -32 480 -44 766 -11 286 -29 678 -39 870 l-19 350 -51 170 -52 170 -29 283 -30 284 -48 160 -48 160 -22 196 -23 197 -59 120 -59 120 -29 140 -29 140 -71 136 c-39 76 -71 153 -71 173 l0 35 -59 74 -59 74 -32 98 c-18 53 -46 108 -63 122 -16 14 -53 71 -81 127 -28 55 -79 135 -114 176 -34 41 -98 120 -142 175 -141 178 -577 602 -667 648 -31 16 -68 44 -84 63 -15 18 -76 55 -136 81 -60 27 -131 70 -157 97 l-49 48 -57 13 c-31 7 -97 39 -145 71 l-88 58 -148 31 -149 31 -78 52 -77 51 -236 38 c-129 20 -261 47 -292 59 -31 12 -111 35 -177 50 l-120 29 -470 20 c-258 10 -537 23 -620 27 -82 5 -253 1 -380 -8z" />
<ns0:path d="M460 35132 l-41 -19 -10 -41 c-5 -23 -7 -4625 -4 -10226 l5 -10185 32 -31 31 -32 2719 1 2718 1 310 20 c171 12 446 28 611 37 l302 17 118 54 119 55 158 28 158 28 78 41 c43 22 147 59 232 81 l154 42 50 46 c28 26 93 67 145 91 52 25 95 53 95 63 l0 20 125 56 125 57 48 52 c27 29 59 52 70 52 20 0 157 139 339 343 42 48 139 155 214 237 l138 150 30 86 c16 47 52 113 80 146 l50 60 30 100 30 101 48 58 49 58 34 105 c19 58 56 138 82 176 l47 71 32 168 32 168 48 94 48 95 38 177 c22 97 57 227 80 287 l40 110 32 330 33 330 49 191 50 192 19 588 19 589 0 5000 1 5000 -21 487 -21 487 -50 153 -50 153 -19 160 c-29 235 -59 371 -100 452 -20 40 -50 128 -65 195 l-29 123 -51 75 -51 75 -30 117 -30 117 -50 73 c-28 40 -65 112 -84 159 l-34 85 -37 20 -38 20 -48 96 c-27 53 -64 108 -82 123 -18 15 -51 63 -74 107 -22 44 -69 108 -103 144 -35 35 -74 76 -88 91 -13 15 -63 61 -110 102 -47 40 -125 109 -175 153 -49 44 -138 121 -198 171 l-107 90 -59 13 -59 13 -63 55 -64 55 -110 36 -110 35 -50 46 -50 46 -117 33 c-64 19 -163 55 -220 81 l-103 48 -195 29 -194 29 -131 52 -132 53 -414 19 -414 20 -2885 4 -2884 5 -41 -18z m4630 -3571 c188 -28 488 -79 617 -104 l118 -23 61 -52 c33 -29 102 -74 152 -102 l92 -50 26 -90 c15 -49 57 -153 94 -230 l67 -140 22 -430 21 -430 0 -5287 0 -5286 -21 -244 -22 -243 -39 -50 c-22 -27 -62 -98 -91 -156 l-51 -106 -73 -46 c-41 -26 -85 -60 -98 -76 -37 -45 -150 -87 -395 -148 l-220 -54 -363 -9 -364 -9 -36 56 -37 56 -6 6491 -6 6491 13 107 12 106 39 39 38 38 165 0 c91 -1 219 -9 285 -19z" />
<ns0:path d="M12278 35126 l-57 -23 -11 -47 c-6 -25 -8 -4620 -5 -10210 l5 -10165 41 -41 41 -41 4132 0 4132 1 51 19 51 19 21 40 22 40 -6 1893 -5 1892 -56 49 -56 48 -2037 0 -2038 0 -32 12 c-18 7 -46 38 -62 69 l-29 57 0 2241 0 2241 40 40 40 40 1868 0 1867 0 28 33 27 33 0 1864 0 1864 -27 33 -28 33 -1867 0 -1867 0 -36 54 -35 54 -5 1881 -6 1880 23 56 23 57 38 19 37 20 1923 -2 1922 -2 20 20 c11 11 27 59 37 106 l16 87 1 1833 1 1833 -35 42 -35 43 -4008 5 -4008 4 -56 -24z" />
<ns0:path d="M38859 35136 l-38 -14 -11 -46 c-6 -25 -8 -4629 -5 -10230 l5 -10185 32 -31 31 -32 1849 1 c1016 0 1873 1 1904 1 l56 0 49 49 49 49 0 10191 0 10190 -47 31 -47 31 -1894 4 -1894 5 -39 -14z" />
<ns0:path d="M44446 35114 l-46 -37 5 -10208 5 -10208 32 -31 31 -32 2009 1 2008 0 35 43 35 42 0 4598 0 4598 41 41 42 42 103 -11 c57 -6 209 -17 338 -23 l234 -13 118 -56 c65 -30 169 -70 231 -88 l112 -33 86 -112 c47 -61 96 -132 110 -158 l26 -46 29 -248 c16 -136 42 -306 59 -376 l30 -129 1 -3984 0 -3984 45 -52 45 -52 1947 1 1948 0 27 35 27 36 0 3970 1 3970 -29 270 c-16 149 -53 401 -81 560 l-53 290 -58 120 -59 120 -30 150 -31 150 -40 50 c-22 28 -58 89 -80 138 -41 90 -53 105 -269 322 -171 172 -267 249 -343 275 -34 12 -99 48 -145 81 l-83 60 -120 14 -119 14 -45 38 -45 38 54 45 c30 25 83 66 117 93 l61 47 109 34 109 33 55 52 c30 28 87 67 125 87 95 48 222 153 371 309 180 188 263 296 321 419 28 60 72 133 97 163 l46 55 32 141 c17 78 50 176 71 219 l40 78 30 189 31 189 49 108 49 109 20 120 c11 66 25 258 32 427 7 169 21 376 31 460 10 84 33 279 51 432 l33 280 -22 330 c-55 846 -84 1259 -112 1592 l-30 360 -49 198 -49 198 -23 242 -23 241 -50 120 c-27 66 -67 196 -88 289 l-38 169 -51 74 -52 74 -27 103 -27 103 -50 65 c-27 36 -64 100 -81 142 -18 41 -59 106 -92 144 -33 38 -60 77 -60 88 0 42 -500 579 -540 579 -9 0 -59 36 -110 80 -51 44 -104 80 -118 80 -14 0 -43 19 -64 43 -45 50 -180 116 -240 117 l-41 0 -92 61 -93 61 -196 40 c-108 21 -245 58 -306 80 l-110 41 -260 19 -260 19 -3309 4 -3308 5 -47 -36z m5248 -3807 l249 -33 114 -115 c62 -63 140 -158 173 -212 l59 -96 24 -141 c13 -77 34 -252 46 -390 12 -137 35 -404 52 -592 16 -188 26 -355 21 -370 -5 -15 -24 -181 -42 -368 -17 -187 -45 -434 -61 -549 l-30 -210 -35 -60 c-20 -34 -52 -105 -73 -160 l-37 -99 -73 -81 c-40 -44 -88 -105 -106 -134 l-33 -53 -186 -46 -186 -45 -453 -8 -452 -8 -43 45 -42 46 0 1816 0 1816 40 40 40 40 392 0 393 0 249 -33z" />
<ns0:path d="M55640 35127 l-54 -23 -13 -33 -13 -34 0 -7394 0 -7393 21 -480 c12 -264 29 -633 39 -820 l18 -340 50 -154 51 -154 21 -186 c30 -259 59 -394 101 -478 20 -40 51 -132 68 -205 l30 -133 50 -75 49 -75 30 -127 29 -127 50 -75 c28 -42 60 -113 72 -159 l23 -83 59 -67 c32 -37 72 -98 87 -135 16 -37 48 -86 73 -107 24 -22 65 -80 92 -130 54 -99 169 -273 212 -320 24 -27 196 -184 484 -441 55 -50 142 -122 191 -161 l90 -70 93 -35 92 -34 36 -40 36 -39 98 -30 98 -29 58 -48 58 -49 105 -35 c58 -19 147 -55 196 -79 l90 -45 198 -33 197 -34 119 -50 118 -49 154 -19 c85 -10 312 -28 504 -39 193 -12 438 -35 545 -51 l195 -30 214 30 c118 17 363 39 545 51 182 11 406 29 498 39 l167 19 111 51 112 51 184 28 184 27 137 60 c76 32 172 70 214 83 41 14 100 45 130 70 29 24 98 60 153 78 l99 33 43 41 c24 22 86 57 138 77 94 35 156 80 320 232 48 44 144 130 213 190 70 61 179 160 244 220 l118 110 46 90 c25 50 65 108 89 130 25 21 57 70 73 107 15 37 54 97 86 134 32 36 65 87 72 113 8 25 41 74 73 108 l59 62 30 115 30 116 48 72 47 73 33 130 33 130 48 74 48 74 39 176 c21 97 57 231 80 299 l41 123 31 257 30 257 41 115 41 115 22 255 22 255 8 7910 7 7911 -26 36 -26 36 -1939 -2 -1938 -2 -36 -33 -36 -32 -1 -7572 -2 -7572 -15 -370 -15 -370 -75 -240 c-41 -132 -90 -268 -108 -303 -19 -35 -71 -112 -116 -171 l-83 -107 -157 -77 -158 -78 -145 -21 -145 -21 -125 26 -125 25 -134 72 -133 72 -104 117 -103 118 -26 99 c-14 54 -44 127 -65 163 -22 37 -51 111 -64 166 l-24 100 -22 360 -21 360 -7 7580 c-4 4169 -11 7599 -16 7622 l-10 43 -56 23 -56 23 -1867 5 -1868 4 -54 -23z" />
<ns0:path d="M78667 35139 l-84 -11 -31 -27 -32 -26 0 -10188 0 -10189 49 -49 49 -49 56 0 c31 0 888 -1 1904 -1 l1849 -1 31 32 32 31 5 10206 5 10205 -25 35 -26 35 -1849 4 c-1018 2 -1887 -1 -1933 -7z" />
<ns0:path d="M85575 35105 l-31 -35 -23 -399 -23 -399 -37 -221 c-58 -350 -58 -354 -91 -901 l-31 -520 -31 -190 c-61 -375 -68 -437 -98 -950 l-31 -520 -31 -190 c-61 -374 -68 -437 -99 -959 l-31 -529 -38 -221 c-48 -281 -75 -550 -90 -891 -15 -346 -42 -612 -91 -900 l-39 -230 -29 -510 c-30 -508 -43 -633 -100 -973 l-31 -177 -30 -530 -31 -530 -49 -300 -50 -300 -30 -520 c-17 -286 -35 -547 -40 -580 -5 -33 -27 -172 -50 -310 l-40 -250 -30 -520 c-30 -514 -37 -576 -98 -950 l-31 -190 -31 -520 c-30 -514 -37 -576 -98 -950 l-31 -190 -31 -520 c-17 -286 -35 -547 -40 -580 -5 -33 -27 -172 -50 -310 l-40 -250 -30 -520 c-17 -286 -35 -547 -40 -580 -5 -33 -27 -172 -49 -310 l-40 -250 -20 -320 c-12 -175 -21 -343 -21 -372 l0 -54 35 -43 35 -43 1908 1 1908 0 46 31 47 31 10 44 c5 25 19 257 30 515 21 469 31 584 89 1022 l31 233 31 642 c17 353 36 656 43 673 6 17 37 45 68 61 l57 29 1158 0 1158 0 31 -35 32 -35 22 -390 23 -390 49 -330 48 -330 30 -560 c36 -664 75 -1017 122 -1111 15 -29 40 -63 56 -76 l29 -25 1857 1 1857 0 37 45 38 46 -14 190 c-10 157 -54 485 -101 767 -6 31 -24 300 -41 597 l-30 540 -39 223 c-45 268 -73 549 -90 913 -16 358 -44 642 -90 911 l-38 222 -31 540 c-17 297 -35 566 -40 599 -6 32 -28 175 -50 318 l-40 260 -31 530 -31 530 -49 310 -49 310 -31 530 -31 530 -31 200 c-17 110 -39 255 -49 323 -10 68 -32 360 -49 650 l-31 527 -49 310 -49 310 -31 530 -31 530 -40 260 c-22 143 -44 286 -49 317 -6 31 -24 300 -41 597 l-30 540 -39 223 c-45 269 -73 551 -90 913 -17 361 -44 644 -90 911 l-38 222 -31 538 -31 539 -31 200 c-17 110 -40 254 -50 321 -10 66 -32 358 -49 649 l-31 529 -49 310 -49 311 -23 400 -22 400 -31 35 -31 35 -3444 0 -3444 0 -31 -35z m3464 -3500 l43 -35 29 -220 c16 -121 38 -285 49 -365 10 -80 33 -409 50 -730 l31 -585 30 -200 c59 -389 69 -501 99 -1075 l31 -580 49 -342 49 -343 31 -587 31 -588 49 -342 49 -343 31 -587 31 -588 49 -342 49 -343 31 -590 31 -590 48 -340 c26 -187 53 -400 61 -474 l13 -133 -42 -42 -41 -41 -845 0 -845 1 -50 25 -50 25 -6 82 -6 83 51 407 51 407 30 670 30 670 50 400 50 400 30 670 30 670 50 400 50 400 30 670 30 670 50 400 50 400 31 680 31 680 39 300 c37 286 72 745 84 1107 l5 167 39 28 c21 15 45 28 53 28 7 0 33 -16 57 -35z" />
<ns0:path d="M18240 12291 c-16 -4 -109 -18 -205 -31 l-175 -24 -125 -97 c-125 -97 -293 -274 -428 -452 l-72 -93 -30 -92 c-17 -51 -52 -117 -77 -148 -46 -54 -88 -170 -88 -240 0 -20 9 -53 20 -74 l20 -37 100 -33 101 -34 56 -47 c31 -26 106 -66 167 -88 l109 -41 47 -50 47 -50 52 0 52 0 92 86 c50 48 107 111 126 140 l35 54 83 22 83 23 190 -11 190 -10 110 -40 c61 -22 169 -60 240 -85 118 -40 193 -73 340 -151 28 -14 118 -36 200 -49 83 -12 236 -46 340 -75 l190 -53 230 -1 230 0 155 75 c85 41 161 75 170 75 34 0 261 264 447 520 l79 110 32 110 c18 60 55 143 83 185 l50 76 27 102 26 101 -28 67 -28 66 -63 33 c-34 18 -129 45 -211 61 l-148 28 -113 61 -114 60 -85 0 c-47 0 -100 -6 -118 -12 l-33 -13 -37 -74 c-21 -40 -67 -102 -103 -137 l-65 -63 -110 -32 c-60 -18 -124 -32 -141 -33 -18 0 -137 18 -265 40 l-233 41 -107 60 -107 60 -80 14 -80 13 -108 60 -108 60 -282 29 c-352 36 -513 47 -552 38z" />
<ns0:path d="M3084 9958 c-81 -10 -202 -34 -271 -55 -68 -22 -184 -45 -258 -53 l-135 -15 -88 -58 c-48 -31 -129 -70 -179 -85 l-93 -28 -71 -57 c-38 -31 -151 -127 -250 -214 l-180 -156 -39 -76 -38 -76 -32 -12 -32 -13 -49 -111 c-27 -61 -67 -136 -89 -165 l-40 -54 -48 -170 c-27 -94 -63 -210 -81 -258 -18 -48 -44 -161 -57 -250 l-24 -162 0 -2850 0 -2850 26 -186 25 -186 48 -128 c27 -71 59 -183 73 -250 l23 -121 55 -85 c30 -48 70 -133 89 -190 l34 -104 37 -25 c20 -15 57 -62 82 -105 l46 -80 163 -160 c90 -88 206 -193 258 -234 l94 -74 73 -23 c41 -13 92 -40 114 -59 65 -57 117 -77 260 -100 74 -12 160 -35 192 -51 l56 -29 662 0 662 0 56 29 c30 16 118 39 194 52 149 26 196 44 259 101 22 20 79 50 127 67 l87 31 78 65 c44 36 160 146 260 245 l182 180 26 60 c14 33 49 82 78 109 l52 49 32 109 c17 60 57 149 88 197 l56 89 24 142 c13 78 46 206 73 284 l50 141 17 290 17 290 0 2520 0 2520 -17 270 -17 270 -51 133 c-28 73 -61 192 -74 265 l-23 132 -58 85 -57 85 -30 101 -30 100 -60 45 -61 45 0 30 0 30 -194 190 c-107 104 -204 189 -216 189 -13 0 -48 27 -80 60 l-57 59 -111 32 -112 32 -40 37 c-54 51 -121 74 -261 91 -66 8 -173 31 -239 51 -234 71 -650 95 -986 56z m540 -1859 c41 -11 88 -34 105 -51 16 -16 39 -68 51 -114 12 -46 46 -160 76 -254 l54 -170 0 -2490 0 -2490 -66 -260 c-36 -143 -72 -287 -80 -319 l-15 -59 -116 -68 -117 -68 -67 0 -67 0 -108 51 c-59 28 -117 63 -128 77 -27 36 -122 342 -146 477 l-21 111 6 2639 5 2639 45 70 c24 39 64 108 88 155 l45 84 81 29 81 29 110 1 c61 1 143 -8 184 -19z" />
<ns0:path d="M13184 9958 c-81 -10 -202 -34 -270 -55 -68 -21 -177 -44 -243 -52 -140 -17 -207 -40 -261 -91 l-40 -37 -112 -32 -111 -32 -57 -59 c-32 -33 -67 -60 -79 -60 -29 0 -391 -351 -391 -379 0 -12 -35 -60 -78 -106 l-78 -85 -22 -80 c-12 -44 -48 -118 -80 -165 l-58 -85 -23 -132 c-13 -73 -46 -192 -74 -265 l-51 -133 -17 -280 -17 -280 0 -2490 0 -2490 17 -310 18 -310 50 -141 c28 -77 61 -203 73 -280 l23 -139 57 -93 c31 -51 70 -142 87 -201 l32 -108 52 -49 c29 -27 64 -76 78 -109 l26 -60 182 -180 c100 -99 216 -209 258 -244 l77 -64 116 -43 115 -43 10 -26 c13 -35 91 -64 247 -91 72 -12 158 -35 191 -51 l62 -29 668 6 669 7 90 32 c50 17 143 41 209 53 l118 22 52 48 51 48 80 26 80 25 87 72 c146 120 443 415 443 439 0 13 31 58 70 100 l70 78 31 87 c17 49 53 122 80 163 l50 75 31 135 c17 74 52 195 78 269 l48 133 26 177 26 176 0 2860 0 2860 -26 178 -26 179 -47 111 c-26 62 -58 164 -72 228 l-26 116 -65 102 c-37 56 -72 127 -79 159 l-12 57 -56 45 c-31 25 -71 74 -88 109 l-33 63 -179 157 c-99 86 -212 182 -250 213 l-71 57 -94 28 c-52 16 -129 52 -171 81 l-75 53 -175 27 c-96 15 -215 41 -265 57 -201 64 -629 86 -956 48z m572 -1869 l78 -31 78 -194 78 -194 0 -2670 0 -2670 -80 -230 -80 -230 -80 -43 c-44 -24 -109 -54 -144 -67 l-65 -23 -125 55 c-70 30 -143 70 -163 89 l-37 34 -35 168 c-20 92 -52 226 -73 297 l-38 130 0 2570 0 2570 75 153 c41 85 75 162 75 172 0 34 90 102 160 122 39 10 122 20 185 21 l114 2 77 -31z" />
<ns0:path d="M24480 9962 c-71 -9 -180 -31 -241 -49 -62 -19 -191 -47 -288 -62 l-176 -29 -72 -49 c-40 -28 -118 -67 -173 -88 -174 -65 -453 -289 -615 -492 -31 -38 -80 -113 -109 -166 -29 -53 -69 -116 -90 -140 l-39 -42 -30 -118 -30 -117 -48 -71 -49 -71 -31 -229 c-17 -126 -48 -373 -70 -549 l-39 -320 0 -2312 0 -2312 39 -348 c22 -191 53 -453 69 -581 l30 -234 58 -116 c32 -64 69 -162 82 -216 l25 -99 58 -80 c33 -44 59 -92 59 -106 0 -14 30 -60 67 -101 37 -41 87 -111 110 -155 l42 -80 132 -110 c73 -60 167 -139 208 -175 l76 -65 87 -31 c48 -17 105 -47 127 -67 65 -59 116 -79 263 -102 76 -12 164 -35 196 -51 l58 -29 672 1 672 0 38 29 37 28 93 13 c50 7 128 22 172 33 l79 20 66 58 c37 32 80 58 97 58 78 0 211 97 432 314 160 157 232 247 290 362 26 51 65 112 88 136 l41 43 30 118 30 117 51 75 51 74 28 216 c15 118 42 258 59 310 l31 95 18 185 18 185 0 2570 0 2570 -18 177 c-11 97 -33 218 -49 270 -17 51 -44 181 -59 289 l-29 196 -53 77 -54 77 -26 102 -27 102 -53 62 c-29 35 -67 91 -84 125 -17 35 -53 86 -79 113 -182 195 -337 340 -362 340 -9 0 -47 27 -86 60 l-70 61 -95 28 -95 29 -69 53 -70 53 -176 28 c-96 15 -242 46 -325 68 l-150 42 -310 7 -310 8 -130 -15z m550 -1873 c36 -17 85 -52 108 -77 l43 -46 21 -128 c11 -70 33 -197 50 -281 l29 -154 -1 -2408 -1 -2407 -19 -68 c-11 -37 -29 -158 -40 -269 -11 -110 -30 -231 -42 -268 l-22 -67 -119 -76 c-65 -43 -145 -83 -177 -90 l-59 -13 -125 67 -125 66 -56 81 -57 81 -30 298 -29 297 6 2562 6 2561 23 65 c13 35 61 110 108 165 l85 101 61 18 c34 9 115 18 179 19 l117 2 66 -31z" />
<ns0:path d="M38440 9958 c-82 -9 -202 -31 -264 -48 -63 -18 -198 -45 -300 -62 l-186 -30 -70 -48 c-38 -26 -121 -66 -183 -90 -62 -23 -125 -55 -139 -72 -14 -17 -62 -49 -107 -72 -44 -22 -109 -69 -143 -103 -34 -35 -83 -82 -110 -106 -92 -82 -191 -197 -213 -250 -12 -28 -48 -82 -81 -120 l-58 -67 -24 -72 c-12 -39 -45 -101 -71 -137 l-48 -65 -24 -103 c-14 -57 -50 -167 -80 -245 l-56 -142 -21 -158 c-12 -87 -30 -302 -41 -478 l-21 -319 0 -2284 0 -2284 20 -306 c12 -169 30 -374 42 -457 l21 -150 47 -101 c26 -56 58 -146 72 -200 27 -114 49 -163 97 -219 19 -22 50 -83 70 -136 l35 -96 47 -31 47 -31 14 -43 13 -43 180 -176 c99 -96 204 -188 233 -203 28 -15 74 -51 101 -80 l49 -52 106 -31 106 -31 55 -45 c71 -58 102 -69 269 -93 l138 -19 58 -30 58 -30 712 0 712 0 54 28 54 28 160 24 c164 25 244 55 288 108 l25 30 108 31 107 32 66 59 c35 33 72 60 81 60 45 0 403 364 455 463 21 39 51 77 67 83 l29 11 44 117 c23 64 68 154 100 201 l56 86 23 133 23 133 50 118 50 119 18 203 19 203 0 2630 0 2630 -19 200 -18 200 -42 120 c-24 66 -60 198 -80 294 l-38 174 -51 77 c-28 42 -64 122 -80 177 l-30 100 -47 41 c-26 23 -68 83 -92 134 l-45 92 -169 169 -168 168 -106 60 c-58 33 -117 73 -131 91 l-26 31 -104 34 c-56 19 -135 56 -175 82 l-71 47 -189 30 c-103 17 -233 43 -288 59 -230 64 -643 85 -970 48z m560 -1865 l90 -23 65 -130 c35 -71 75 -175 88 -230 l24 -100 7 -2623 7 -2623 -33 -87 c-18 -48 -56 -154 -86 -237 l-53 -150 -120 -62 c-65 -35 -142 -68 -171 -75 l-51 -12 -128 64 -129 65 -55 100 c-81 146 -96 188 -117 310 l-18 110 1 2510 1 2510 17 215 16 215 33 45 c18 25 55 78 82 119 l50 75 65 19 c36 10 124 18 195 19 l130 0 90 -24z" />
<ns0:path d="M49793 9929 c-174 -26 -383 -61 -465 -77 l-147 -31 -96 -48 c-52 -26 -147 -63 -210 -81 l-115 -33 -30 -46 c-17 -26 -53 -57 -80 -69 -27 -13 -115 -77 -197 -144 l-147 -121 -55 -101 -55 -101 -29 -11 -29 -11 -52 -102 c-28 -57 -68 -124 -87 -149 l-36 -46 -32 -140 -32 -140 -51 -77 -50 -76 -29 -245 -28 -246 -41 -143 -40 -144 -22 -358 -21 -359 -10 -1920 -11 -1920 21 -460 20 -460 52 -136 51 -136 30 -212 30 -212 58 -92 c31 -51 68 -126 81 -168 14 -41 45 -100 70 -130 25 -29 56 -86 69 -126 l23 -72 115 -113 c63 -62 150 -145 194 -184 44 -38 117 -105 163 -148 l83 -78 77 -14 77 -13 102 -57 102 -56 198 -55 198 -56 736 -6 736 -7 232 61 232 61 57 49 58 48 75 21 c41 11 85 21 99 21 14 0 59 30 100 66 41 36 99 81 128 99 l54 34 13 41 13 40 58 31 58 30 29 55 29 55 50 28 51 27 32 80 c18 45 54 107 81 139 l49 58 31 107 31 107 58 73 58 73 13 93 c15 110 53 259 98 380 41 111 65 294 91 694 11 176 30 390 41 477 l21 156 -20 224 c-11 122 -26 313 -33 423 -17 295 -46 601 -72 760 l-22 140 -36 71 c-20 39 -50 127 -68 195 l-32 125 -59 91 c-32 51 -63 116 -69 145 l-12 53 -195 203 -194 203 -81 22 c-44 11 -111 44 -148 71 -37 28 -95 59 -129 70 -34 10 -206 47 -382 82 l-320 63 -240 -9 -240 -9 -80 -41 c-44 -22 -137 -56 -206 -76 l-126 -35 -19 -37 c-11 -20 -47 -50 -80 -67 l-59 -31 -50 -80 -51 -79 -29 0 -29 0 -32 49 -33 50 7 1025 7 1026 28 50 c16 28 56 87 90 132 l62 82 97 67 96 66 164 9 164 9 123 -104 122 -104 23 -127 c12 -69 35 -158 51 -198 l30 -71 21 -247 c12 -136 20 -255 18 -266 -2 -10 -3 -38 -1 -62 l2 -45 41 -22 42 -22 852 0 852 1 50 37 51 37 -6 509 -5 509 -27 120 c-15 66 -37 203 -48 304 l-20 184 -30 57 c-16 32 -42 69 -58 82 l-29 24 -25 90 -26 91 -232 238 -232 239 -73 30 c-40 16 -100 53 -133 81 l-61 51 -110 38 c-61 21 -136 56 -167 79 l-56 40 -189 32 c-104 18 -197 37 -206 43 -9 6 -122 28 -251 49 l-234 38 -170 -2 -170 -1 -317 -48z m536 -5560 c36 -17 89 -56 118 -86 l53 -56 60 -171 60 -171 20 -188 c26 -246 25 -688 -2 -1174 l-21 -393 -24 -42 c-12 -23 -45 -83 -72 -134 l-48 -93 -62 -29 c-33 -15 -103 -42 -154 -59 l-93 -31 -57 16 c-31 10 -97 39 -146 65 l-89 47 -79 115 -79 116 -16 164 -15 165 0 650 c0 358 6 718 14 802 l14 151 77 113 78 112 72 50 c97 67 157 89 249 91 l77 1 65 -31z" />
<ns0:path d="M82700 9961 c-71 -9 -180 -31 -241 -49 -62 -18 -190 -45 -285 -61 l-173 -28 -61 -43 c-33 -24 -115 -65 -182 -91 l-120 -47 -70 -61 c-38 -34 -78 -61 -89 -61 -18 0 -94 -66 -220 -190 -80 -79 -174 -201 -209 -270 -19 -38 -57 -94 -83 -122 l-49 -53 -30 -115 -30 -115 -51 -76 -51 -76 -26 -187 c-14 -102 -40 -258 -58 -346 -17 -88 -41 -253 -52 -367 l-20 -207 0 -2343 0 -2343 20 -230 c12 -126 35 -302 52 -390 18 -88 44 -254 59 -368 l28 -208 49 -75 50 -75 32 -127 33 -127 47 -50 c25 -27 59 -82 76 -121 16 -40 56 -103 89 -140 33 -38 74 -98 93 -134 18 -36 41 -65 50 -65 10 0 57 -38 106 -85 137 -131 289 -242 370 -270 41 -14 93 -42 115 -63 64 -58 110 -75 263 -101 78 -13 167 -37 197 -52 l56 -29 668 0 668 0 45 29 44 29 134 21 c154 25 226 48 246 82 8 12 74 49 146 82 133 59 215 120 373 272 48 47 97 85 109 85 l21 0 41 79 c22 44 66 109 98 145 31 36 72 98 89 136 18 39 51 93 73 121 l42 51 31 118 c17 66 53 157 80 202 l48 84 30 227 c17 124 38 258 48 297 10 38 30 174 45 300 l26 230 0 2460 0 2460 -26 210 c-15 116 -35 242 -45 280 -10 39 -32 169 -48 289 l-31 219 -49 71 -48 71 -33 115 -33 115 -46 55 c-25 30 -65 94 -89 141 -24 47 -57 91 -72 97 -16 6 -52 50 -80 99 -28 48 -61 88 -72 88 -12 0 -57 36 -100 80 -44 44 -87 80 -96 80 -9 0 -56 31 -104 70 l-88 70 -100 33 c-55 18 -129 55 -164 81 l-63 49 -167 27 c-91 14 -238 46 -326 69 l-160 43 -310 8 -310 8 -130 -17z m552 -1872 l63 -25 54 -71 55 -72 37 -265 38 -266 1 -2360 0 -2360 -31 -270 c-17 -148 -36 -300 -41 -337 l-10 -67 -78 -84 -78 -84 -99 -47 -100 -46 -46 12 c-26 6 -96 41 -155 77 l-109 66 -39 53 -39 53 -32 257 -33 257 0 2550 0 2550 26 141 26 142 86 96 85 95 109 25 108 25 70 -9 c39 -6 98 -22 132 -36z" />
<ns0:path d="M32920 9880 c-93 -10 -275 -26 -404 -36 l-234 -17 -79 -52 -78 -53 -113 -29 -112 -29 -93 -62 c-52 -34 -107 -62 -124 -62 l-30 0 -256 -254 -256 -253 -24 -72 c-13 -39 -44 -99 -70 -133 -26 -34 -60 -105 -76 -157 -15 -52 -53 -132 -83 -177 l-54 -82 -29 -221 -28 -221 -50 -140 -50 -140 -18 -350 c-9 -192 -17 -553 -18 -801 l-1 -450 31 -45 31 -44 978 0 977 0 32 31 31 32 1 613 0 614 18 190 17 190 72 120 73 120 74 65 75 64 76 22 77 21 106 -22 107 -22 110 -116 110 -115 21 -79 c12 -43 31 -177 42 -298 l21 -220 -20 -366 -19 -365 -22 -85 c-13 -46 -40 -117 -61 -157 l-37 -74 -24 -142 -23 -143 -56 -70 -56 -70 -32 -97 -32 -96 -38 -35 -39 -35 -42 -113 c-23 -61 -60 -131 -81 -154 -22 -23 -58 -90 -80 -149 -23 -59 -63 -134 -91 -168 -56 -69 -111 -146 -228 -324 -45 -68 -94 -128 -109 -134 -15 -6 -43 -41 -61 -77 -19 -36 -57 -89 -86 -117 -29 -28 -69 -78 -88 -110 -19 -33 -66 -99 -104 -149 -38 -49 -99 -128 -135 -176 -36 -47 -102 -130 -146 -184 -44 -54 -110 -137 -146 -184 -36 -48 -97 -126 -135 -176 -38 -49 -85 -117 -104 -149 -19 -33 -60 -84 -90 -113 -30 -30 -73 -93 -95 -141 -22 -48 -63 -118 -91 -156 -28 -38 -55 -92 -62 -120 -6 -28 -37 -84 -69 -124 -32 -41 -76 -123 -98 -183 l-41 -109 -39 -35 -38 -35 -34 -102 -34 -103 -45 -55 c-48 -57 -56 -83 -89 -302 l-21 -138 -41 -78 -40 -79 -18 -164 c-9 -90 -24 -326 -31 -524 l-14 -360 32 -75 31 -75 26 -1 c14 0 1138 0 2496 1 l2470 0 35 42 35 42 0 833 -1 833 -19 30 -19 30 -1270 10 -1270 10 -29 30 -30 30 68 141 c37 78 82 154 101 170 18 15 53 73 78 128 24 56 60 114 80 130 19 16 56 72 81 125 48 100 111 186 226 310 36 40 75 91 87 114 12 23 49 69 81 102 69 70 182 215 231 298 19 32 69 94 110 138 41 43 75 91 75 106 l0 27 60 44 c33 24 65 61 71 81 7 20 45 77 86 125 71 86 146 187 236 318 24 35 72 90 105 123 34 33 62 71 62 83 0 13 33 67 72 119 40 52 86 127 102 166 16 40 51 95 77 122 l47 51 32 89 c17 50 53 122 80 160 l48 70 31 119 31 119 51 73 51 74 37 207 38 208 43 96 43 96 17 174 c9 96 22 341 29 544 l13 370 -20 333 -20 334 -81 240 c-45 132 -81 253 -81 269 0 15 -25 63 -56 106 -31 43 -72 121 -92 174 l-36 97 -28 10 c-15 6 -47 44 -71 84 -64 104 -267 323 -343 369 -35 22 -98 69 -139 107 -41 37 -86 67 -100 67 -14 0 -68 31 -121 68 l-95 68 -69 13 c-38 7 -127 40 -197 72 l-128 60 -217 29 -218 29 -300 9 -300 9 -170 -17z" />
<ns0:path d="M44250 9880 c-88 -10 -270 -26 -404 -35 l-243 -18 -80 -55 -79 -55 -117 -30 c-63 -17 -139 -47 -166 -66 -28 -20 -96 -59 -151 -87 l-100 -51 -195 -192 -195 -192 -42 -85 c-23 -46 -59 -102 -79 -124 l-36 -40 -33 -115 -33 -115 -47 -56 -46 -55 -20 -80 c-11 -43 -26 -125 -32 -182 -7 -56 -35 -168 -63 -250 l-50 -147 -19 -190 c-10 -104 -28 -412 -41 -682 l-22 -493 14 -213 15 -214 41 -29 42 -29 922 0 923 0 63 22 63 22 9 43 c5 24 13 372 18 773 l8 730 30 107 30 107 118 119 117 118 74 20 74 20 80 -13 80 -13 96 -62 96 -63 74 -150 74 -150 21 -210 21 -210 -18 -341 -18 -340 -50 -120 -51 -120 -22 -129 c-12 -72 -27 -155 -33 -185 l-11 -56 -49 -58 -49 -58 -28 -94 -29 -94 -51 -53 -50 -54 -28 -92 -28 -92 -61 -77 -60 -77 -13 -64 -14 -64 -68 -86 c-38 -47 -69 -97 -69 -110 0 -14 -40 -70 -90 -126 -49 -56 -90 -110 -90 -121 0 -10 -30 -53 -67 -94 -37 -41 -82 -104 -100 -139 -18 -35 -49 -75 -70 -90 -20 -14 -52 -55 -70 -91 -19 -35 -56 -79 -83 -97 -26 -17 -54 -49 -61 -70 -7 -22 -45 -79 -86 -127 -69 -84 -136 -174 -237 -318 -24 -35 -72 -94 -106 -133 -107 -120 -220 -262 -220 -276 0 -8 -40 -64 -90 -124 -49 -60 -90 -121 -90 -134 0 -14 -26 -55 -59 -91 l-58 -67 -41 -107 c-22 -59 -58 -126 -80 -149 -21 -23 -58 -93 -81 -154 l-42 -113 -39 -35 -38 -35 -32 -96 -32 -97 -57 -70 -56 -71 -21 -140 -21 -140 -52 -115 -53 -115 -18 -190 c-9 -105 -24 -367 -31 -582 l-14 -391 47 -55 48 -55 2433 1 2434 1 36 13 c20 7 57 31 82 53 l45 41 0 811 -1 812 -14 22 c-8 12 -35 32 -59 45 l-43 23 -1233 0 -1233 0 -38 21 -39 20 0 37 0 37 33 28 c19 15 55 77 82 137 26 61 70 133 96 160 26 28 60 82 76 120 16 39 57 105 90 147 34 42 67 96 75 120 12 39 57 97 229 293 85 97 187 232 259 343 34 51 74 98 90 104 15 6 47 47 70 92 22 45 50 81 61 81 10 0 47 45 81 100 34 55 69 100 79 100 9 0 42 43 72 95 30 52 82 129 116 170 33 41 97 120 141 175 44 55 109 135 145 178 36 42 78 108 94 147 16 39 52 97 81 131 28 33 65 94 82 135 17 42 57 108 88 147 l57 72 22 80 c11 44 47 118 78 164 l58 84 13 85 14 85 61 106 60 107 31 204 30 205 49 117 49 117 20 393 19 393 -13 350 -13 350 -65 200 c-36 110 -72 242 -79 293 l-13 94 -59 86 -58 87 -31 105 -31 104 -39 21 c-22 12 -55 50 -73 86 -50 97 -318 374 -409 424 -29 15 -67 50 -84 77 l-33 49 -75 25 c-42 13 -96 42 -120 64 l-44 40 -166 59 c-91 33 -211 76 -266 96 l-100 37 -193 21 c-106 12 -322 26 -480 30 l-287 9 -160 -17z" />
<ns0:path d="M6401 9856 c-20 -7 -43 -23 -50 -35 l-14 -22 2 -860 2 -860 23 -50 22 -49 32 -2 c18 -1 241 0 497 2 l465 3 60 -60 61 -61 -1 -3862 -1 -3862 12 -19 c6 -11 38 -33 71 -50 l59 -31 849 0 849 0 60 31 c33 17 69 49 81 71 l21 39 -2 3855 -1 3856 54 46 54 47 462 -3 c254 -2 476 -3 494 -2 l32 2 22 49 22 48 3 864 4 863 -29 28 -28 29 -2075 4 -2075 5 -37 -14z" />
<ns0:path d="M17716 9861 l-914 -11 -21 -21 -21 -21 0 -4832 c0 -2657 5 -4845 11 -4861 6 -16 33 -39 59 -51 l47 -22 856 -3 855 -4 48 56 47 55 -4 2142 -4 2142 15 55 14 55 26 0 26 0 11 -45 c6 -25 25 -133 42 -241 l31 -197 38 -73 c44 -87 72 -221 103 -491 l22 -198 48 -145 47 -146 31 -249 31 -249 49 -151 49 -151 31 -252 31 -252 50 -151 49 -151 31 -249 30 -249 51 -154 50 -155 22 -200 c13 -111 30 -222 40 -247 l17 -46 71 -30 70 -29 844 -1 844 -1 56 62 55 62 0 4809 0 4808 -44 41 -44 41 -41 1 c-22 0 -409 1 -858 1 l-818 0 -49 -46 -50 -46 7 -2080 7 -2080 -19 -10 -19 -10 -32 160 -32 160 -64 120 -64 120 -32 289 -31 289 -48 151 -47 151 -33 267 -32 267 -48 148 -49 148 -29 255 -30 256 -51 169 -51 169 -29 255 -30 255 -50 158 -50 158 -13 124 -13 124 -32 38 -32 39 -60 6 c-33 3 -471 1 -974 -5z" />
<ns0:path d="M56155 9863 c-14 -4 -36 -22 -50 -39 l-25 -32 0 -4834 0 -4834 35 -43 35 -43 800 0 c440 0 812 1 826 1 l26 1 31 75 32 75 -7 3080 -6 3080 16 114 16 114 26 35 25 34 22 -41 22 -41 22 -238 c28 -295 69 -564 108 -705 l30 -108 31 -293 31 -293 49 -179 49 -179 31 -300 31 -300 49 -170 49 -170 30 -297 31 -297 50 -183 49 -183 31 -286 c32 -309 36 -329 92 -524 l37 -130 31 -297 30 -297 50 -185 51 -185 29 -294 30 -294 19 -36 20 -37 70 -33 71 -34 748 0 748 0 71 29 70 30 22 41 22 42 29 304 30 305 49 191 50 192 31 311 31 312 48 187 49 188 32 320 32 320 49 189 49 190 30 311 30 310 32 120 c62 230 67 262 98 570 l30 310 49 197 50 197 21 253 c30 340 52 460 112 595 l50 113 29 212 c17 117 38 220 47 229 l17 17 15 -22 14 -23 -3 -3209 -3 -3208 22 -40 c11 -22 40 -50 64 -63 l43 -23 788 4 c433 2 799 8 814 13 14 6 36 33 48 60 l23 50 0 4814 -1 4814 -19 30 -19 30 -1445 10 -1446 10 -43 -14 -42 -13 -23 -65 c-12 -35 -22 -95 -22 -132 0 -38 -22 -165 -49 -282 l-49 -214 -32 -370 -32 -370 -48 -210 -48 -210 -31 -360 c-30 -363 -43 -450 -100 -695 l-32 -134 -30 -366 -31 -365 -48 -210 -48 -210 -31 -360 c-35 -414 -45 -477 -132 -790 -63 -229 -89 -288 -119 -270 -21 13 -54 277 -80 638 l-21 298 -48 212 -49 212 -31 365 -30 364 -50 216 -49 215 -21 270 c-27 347 -55 550 -102 751 l-38 160 -30 350 c-30 352 -43 438 -100 684 l-32 135 -27 340 -28 341 -24 29 -24 29 -63 11 c-70 12 -2799 24 -2838 13z" />
<ns0:path d="M66530 9861 c-1023 -7 -1862 -14 -1864 -16 -2 -3 -17 -19 -35 -36 l-31 -32 0 -4806 0 -4806 40 -51 40 -51 85 -16 85 -17 1883 10 1883 10 42 38 42 38 0 855 0 855 -35 43 -35 43 -80 19 -80 19 -879 -3 -878 -2 -37 45 -36 44 0 1017 0 1016 21 56 c12 31 32 63 45 71 l24 15 826 1 826 0 49 49 49 49 0 802 0 803 -19 36 c-11 20 -36 44 -55 54 l-36 17 -839 10 -840 10 -25 50 -25 50 -1 872 0 872 37 33 36 33 892 0 893 0 31 44 31 45 0 883 0 883 -27 22 c-15 13 -53 25 -85 29 -32 3 -895 1 -1918 -5z" />
<ns0:path d="M69421 9856 c-20 -7 -42 -22 -49 -33 l-12 -20 0 -4832 0 -4833 20 -38 c12 -22 36 -46 55 -55 l35 -15 867 10 867 10 38 48 39 47 -1 2026 -2 2025 13 57 c20 92 52 167 72 167 34 0 60 -110 89 -370 l29 -260 49 -170 50 -170 30 -242 30 -242 49 -151 49 -151 31 -252 31 -252 50 -151 49 -151 31 -249 30 -249 50 -151 49 -151 31 -248 30 -248 48 -156 c26 -86 58 -193 70 -239 12 -45 35 -93 51 -106 l29 -24 876 1 c482 0 888 1 902 1 l26 1 29 69 29 70 0 4801 0 4802 -51 51 -52 52 -73 -12 c-41 -7 -436 -13 -878 -13 l-803 0 -32 -31 -31 -32 0 -1926 0 -1926 -20 -107 -21 -107 -29 -29 -28 -29 -21 54 c-11 29 -30 136 -41 238 -38 328 -61 464 -101 593 l-39 126 -30 258 -30 258 -48 147 -48 146 -33 275 -34 275 -48 149 -49 148 -29 255 -30 256 -51 169 -51 170 -31 270 -31 270 -29 46 -30 46 -51 19 -52 20 -899 4 -898 5 -37 -14z" />
<ns0:path d="M75180 9857 c-34 -7 -79 -28 -101 -48 l-39 -35 0 -4815 0 -4815 62 -52 61 -52 44 -1 c23 0 601 0 1283 1 l1240 1 340 29 c187 16 370 38 406 48 36 11 94 37 130 59 35 22 102 50 149 62 l86 23 64 56 c36 31 99 72 140 91 41 20 75 42 75 49 0 13 68 90 240 273 l57 60 39 104 c22 58 62 131 90 164 l50 60 14 85 c8 47 44 154 81 236 l67 150 22 310 22 310 49 302 49 301 0 2425 0 2425 -49 213 -49 214 -21 246 -21 246 -28 66 c-15 37 -38 73 -50 81 -12 7 -41 76 -64 152 l-42 140 -38 20 -38 20 -39 76 -38 76 -179 164 c-99 89 -188 163 -199 163 -11 0 -53 27 -95 60 l-75 60 -143 42 c-78 23 -174 59 -214 79 l-72 37 -168 21 -168 22 -1434 4 -1434 5 -62 -13z m2298 -1746 l188 -29 69 -66 c39 -36 82 -94 97 -129 l27 -62 21 -268 22 -267 -6 -2570 -6 -2570 -40 -110 -40 -109 -66 -45 c-84 -55 -242 -102 -427 -125 l-142 -18 -45 17 -45 17 -23 65 -22 64 0 3068 0 3069 21 39 c12 22 41 48 65 57 l44 16 60 -8 c33 -4 145 -20 248 -36z" />
<ns0:path d="M86378 9859 c-37 -7 -88 -23 -113 -36 l-45 -24 0 -831 0 -830 69 -29 70 -29 909 0 909 0 32 -31 31 -32 0 -46 0 -47 -61 -117 -62 -116 -30 -131 -30 -130 -47 -81 -47 -82 -32 -138 -33 -138 -48 -83 -48 -82 -33 -148 -33 -148 -47 -70 -47 -70 -31 -147 -31 -146 -49 -84 -49 -84 -33 -138 -32 -138 -48 -82 -47 -82 -33 -139 -32 -140 -47 -81 -47 -82 -32 -138 -33 -138 -47 -82 -48 -82 -32 -138 -33 -138 -49 -84 -49 -84 -31 -146 -31 -147 -47 -70 -47 -70 -33 -150 -33 -150 -49 -75 -50 -75 -29 -141 -30 -142 -49 -84 -49 -84 -33 -139 -32 -140 -47 -81 -47 -82 -31 -132 -31 -132 -60 -116 -61 -117 -1 -888 -2 -888 38 -38 37 -37 2015 0 2015 0 59 42 59 42 11 43 c6 24 8 392 5 818 l-6 775 -36 35 -35 36 -1020 6 -1019 5 -32 49 -32 48 24 76 c13 42 46 110 72 151 l49 75 30 145 31 145 48 70 48 70 32 150 31 150 50 75 50 75 29 141 30 142 53 90 52 90 28 130 27 130 49 84 49 84 33 138 32 138 48 82 47 82 33 138 32 138 51 88 51 88 28 130 27 130 49 84 49 84 33 138 32 138 48 82 47 82 33 138 32 138 48 82 47 82 33 138 32 138 48 82 47 82 33 139 32 140 48 83 49 84 31 136 32 137 48 83 49 84 31 132 30 133 65 123 64 122 6 851 c3 468 1 871 -5 895 l-11 44 -38 12 c-49 16 -3813 25 -3904 10z" />
<ns0:path d="M93233 9861 l-1556 -11 -25 -34 -25 -33 -23 -437 -24 -436 -50 -310 -49 -310 -31 -520 -31 -520 -49 -310 -49 -310 -31 -520 -31 -520 -49 -310 -49 -310 -31 -520 -31 -520 -40 -250 c-22 -137 -44 -277 -49 -310 -5 -33 -23 -294 -40 -580 l-31 -520 -40 -250 c-22 -137 -44 -277 -49 -310 -5 -33 -23 -294 -40 -580 -31 -524 -51 -709 -93 -865 l-22 -84 34 -52 33 -51 52 -19 51 -20 815 -1 815 -2 42 27 c23 14 51 49 62 76 32 81 98 644 111 951 6 154 16 317 22 362 l10 82 40 43 40 43 474 0 474 0 64 -39 64 -39 29 -56 29 -56 21 -250 c12 -137 27 -403 34 -590 l13 -340 19 -77 19 -76 64 -27 c35 -14 91 -28 124 -31 33 -3 440 -4 905 -2 l845 3 0 412 0 413 -45 -30 -45 -29 -25 9 -24 8 -20 74 c-26 100 -56 432 -71 793 -14 360 -39 619 -91 940 l-38 240 -31 530 -31 530 -49 310 -49 310 -31 530 -31 530 -31 200 c-17 110 -39 255 -49 323 -10 68 -32 360 -49 650 l-31 527 -49 310 -49 310 -30 525 c-17 288 -39 581 -50 650 -10 69 -33 215 -50 325 -17 110 -31 233 -31 273 l0 73 -35 42 -35 43 -70 6 c-38 3 -770 0 -1627 -6z m107 -1791 c10 -25 32 -243 50 -483 18 -240 50 -554 71 -697 l38 -260 31 -590 31 -590 49 -340 49 -341 20 -409 c11 -226 31 -550 44 -722 l23 -312 -13 -52 -13 -53 -43 -23 -43 -23 -332 -2 -332 -3 -35 35 -35 35 0 225 c0 260 26 578 80 1006 l39 301 31 669 c17 368 39 741 49 829 11 88 33 277 50 420 l30 260 19 530 c11 292 26 549 34 570 8 22 23 51 33 65 l20 25 18 -12 c11 -7 27 -33 37 -58z" />
</ns0:g>
</g>
</g>
</svg>
