<?xml version="1.0" encoding="UTF-8"?>
<svg id="Capa_1" xmlns="http://www.w3.org/2000/svg" version="1.1" viewBox="0 0 600 200">
  <!-- Generator: Adobe Illustrator 30.1.0, SVG Export Plug-In . SVG Version: 2.1.1 Build 136)  -->
  <defs>
    <style>
      .st0 {
        fill: #364392;
      }

      .st1 {
        fill: #fff;
      }
    </style>
  </defs>
  <rect class="st0" x="12.7" y="34" width="581" height="121.7"/>
  <g>
    <path class="st1" d="M65.3,73.5h8.7l8,11,8-11h8.7v27.2h-9.4v-14.6l-7.3,9.9-7.3-9.9v14.6h-9.4v-27.2Z"/>
    <path class="st1" d="M106,73.5h19.9v5.9h-10.5v4.7h10.1v5.7h-10.1v5h10.9v5.8h-20.3v-27.2Z"/>
    <path class="st1" d="M147.7,101.2c-3.6,0-6.5-.7-9-2.2-4.4-2.7-6.8-6.8-6.8-11.8s1.4-7.4,4.4-10.1c3-2.7,6.7-4,11.4-4s6.8.8,10.3,2.3v6.4c-3-1.4-5.7-2.2-8.3-2.2-4.9,0-8.1,3-8.1,7.5s2.9,7.3,7.1,7.3,1.4-.1,2.2-.3v-3h-3.3v-5.7h10.2v13.8c-3.3,1.4-6.6,2.1-10.1,2.1Z"/>
    <path class="st1" d="M175.2,73.5h9.9l12.4,27.2h-9.5l-1.8-4.7h-12.3l-1.9,4.7h-9.5l12.7-27.2ZM184.1,90.8l-4-10.1-4.1,10.1h8.1Z"/>
    <path class="st1" d="M201.5,73.5h8.7l8,11,8-11h8.7v27.2h-9.4v-14.6l-7.3,9.9-7.3-9.9v14.6h-9.4v-27.2Z"/>
    <path class="st1" d="M242.2,73.5h19.9v5.9h-10.5v4.7h10.1v5.7h-10.1v5h10.9v5.8h-20.3v-27.2Z"/>
    <path class="st1" d="M269.5,73.5h13.5c4.6,0,8.1,1.1,11.2,3.7,3.1,2.6,4.5,5.7,4.5,9.9s-1.4,7.3-4.5,9.9c-3.1,2.6-6.6,3.7-11.2,3.7h-13.5v-27.2ZM279.1,93.8h3.5c3.8,0,6.5-2.7,6.5-6.7s-2.7-6.7-6.5-6.7h-3.5v13.3Z"/>
    <path class="st1" d="M305.4,73.5h9.5v27.2h-9.5v-27.2Z"/>
    <path class="st1" d="M338.2,80.2c-4.5,0-7.5,2.8-7.5,6.9s3,6.9,7.5,6.9,5.5-.9,8.3-2.6l.2,7.4c-3.2,1.7-6.5,2.4-10.4,2.4s-7.9-1.4-10.7-4c-2.9-2.7-4.3-6-4.3-10s1.4-7.4,4.3-10.1c3-2.7,6.6-4,11.2-4s6.4.8,9.6,2.3v7.4c-2.8-1.8-5.4-2.6-8.3-2.6Z"/>
    <path class="st1" d="M362.7,73.5h9.9l12.4,27.2h-9.5l-1.8-4.7h-12.3l-1.9,4.7h-9.5l12.7-27.2ZM371.6,90.8l-4-10.1-4.1,10.1h8.1Z"/>
    <path class="st1" d="M414.8,91.7c2.8,1.9,5.3,2.8,7.2,2.8s2.9-.6,2.9-1.9-1.6-1.8-3.9-3.1c-4.1-2.4-6.2-4.7-6.2-8.2s3.9-8.3,9.5-8.3,6.3.9,8.9,2.9v7.2c-2.6-2.3-4.7-3.5-7.1-3.5s-2.5.7-2.5,1.8,1.2,2,3.5,3.2c4.3,2.3,7.1,3.9,7.1,8.4s-3.8,8.2-11,8.2-5.6-.7-8.4-2v-7.5Z"/>
    <path class="st1" d="M445.2,91.4c2.7,0,4.9,2.2,4.9,4.9s-2.2,4.9-4.9,4.9-4.9-2.2-4.9-4.9,2.2-4.9,4.9-4.9Z"/>
    <path class="st1" d="M457,73.5h12.5c8.2,0,12.2,2.5,12.2,8s-1.4,4.9-4.2,6.1c1.5.8,2.4,2.1,3.2,3.9l4,9.1h-9.3l-2.7-6.1c-1.7-3.8-2.6-5.3-5-5.3h-1.3v11.4h-9.4v-27.2ZM468.2,84.7c3,0,4.5-.7,4.5-3.1s-1.4-3.2-4.3-3.2h-2v6.3h1.8Z"/>
    <path class="st1" d="M493.4,91.4c2.7,0,4.9,2.2,4.9,4.9s-2.2,4.9-4.9,4.9-4.9-2.2-4.9-4.9,2.2-4.9,4.9-4.9Z"/>
    <path class="st1" d="M505.3,73.5h9.4v20.2h10.9v7h-20.3v-27.2Z"/>
    <path class="st1" d="M534.8,91.4c2.7,0,4.9,2.2,4.9,4.9s-2.2,4.9-4.9,4.9-4.9-2.2-4.9-4.9,2.2-4.9,4.9-4.9Z"/>
  </g>
  <g>
    <path class="st1" d="M65,134.7v-18.3h2.6v18.3h-2.6Z"/>
    <path class="st1" d="M72.2,134.7v-18.3h2.3l12.1,14.2v-14.2h2.6v18.3h-2.3l-12.1-14.3v14.3h-2.6Z"/>
    <path class="st1" d="M93.2,133.3v-3.5c.8,1,1.6,1.6,2.4,2.1s1.6.6,2.4.6,1.6-.2,2.2-.6c.5-.4.8-1,.8-1.7s-.2-1.1-.5-1.6-1.2-1.1-2.5-1.9c-2.1-1.3-3.4-2.4-3.9-3.1-.5-.7-.8-1.6-.8-2.6s.5-2.6,1.5-3.5c1-.9,2.3-1.4,3.9-1.4s1.4.1,2.1.3c.7.2,1.4.5,2.1,1v3c-.8-.6-1.5-1.1-2.2-1.4-.7-.3-1.4-.4-2-.4s-1.5.2-2,.6c-.5.4-.8.9-.8,1.6,0,.9,1.1,2,3.2,3.4.2.1.3.2.4.2,1.8,1.1,2.9,2.1,3.5,2.9.5.8.8,1.9.8,3.1s-.5,2.6-1.5,3.5-2.3,1.4-3.9,1.4-1.9-.1-2.7-.4-1.6-.7-2.3-1.3Z"/>
    <path class="st1" d="M106.3,116.3h2.6v10.5c0,1.2,0,2,.2,2.5.1.5.3.9.6,1.3.5.6,1.2,1.1,1.9,1.4.7.3,1.6.5,2.5.5,1.6,0,2.9-.4,3.8-1.2,1-.8,1.5-1.9,1.5-3.3v-11.7h2.6v11.8c0,2-.7,3.7-2.2,5-1.5,1.3-3.4,1.9-5.7,1.9s-2.6-.2-3.8-.7c-1.1-.5-2.1-1.2-2.8-2.2-.5-.6-.8-1.2-1-1.9s-.3-1.8-.3-3.2v-10.6Z"/>
    <path class="st1" d="M126,134.7v-18.3h2.3l6.6,7.7,6.6-7.7h2.3v18.3h-2.5v-14.3l-6.4,7.4-6.3-7.4v14.3h-2.5Z"/>
    <path class="st1" d="M147,125.4c0-1.2.2-2.4.7-3.6.5-1.2,1.2-2.2,2.1-3.1.9-.9,2-1.6,3.2-2.1,1.2-.5,2.4-.7,3.7-.7s2.6.2,3.8.7c1.2.5,2.2,1.2,3.2,2.1,1,.9,1.7,2,2.2,3.1.5,1.1.7,2.4.7,3.7s-.2,2.4-.7,3.6-1.2,2.2-2.1,3c-1,.9-2,1.6-3.2,2.1-1.2.5-2.4.7-3.8.7s-2.6-.2-3.7-.7c-1.2-.5-2.2-1.2-3.2-2-.9-.9-1.7-2-2.1-3.1-.5-1.2-.7-2.4-.7-3.7ZM149.8,125.5c0,.9.2,1.8.5,2.7.3.8.9,1.6,1.5,2.3.6.7,1.4,1.2,2.3,1.5.9.4,1.8.5,2.7.5s1.9-.2,2.7-.5c.8-.3,1.6-.9,2.3-1.5.7-.7,1.2-1.4,1.5-2.3.4-.8.5-1.7.5-2.7s-.2-1.8-.5-2.7c-.3-.8-.9-1.6-1.5-2.3-.7-.7-1.4-1.2-2.3-1.5-.8-.4-1.7-.5-2.7-.5s-1.8.2-2.6.5c-.9.4-1.6.9-2.3,1.5-.7.6-1.2,1.4-1.5,2.2-.4.9-.5,1.8-.5,2.7Z"/>
    <path class="st1" d="M169,133.3v-3.5c.8,1,1.6,1.6,2.4,2.1s1.6.6,2.4.6,1.6-.2,2.2-.6c.5-.4.8-1,.8-1.7s-.2-1.1-.5-1.6-1.2-1.1-2.5-1.9c-2.1-1.3-3.4-2.4-3.9-3.1-.5-.7-.8-1.6-.8-2.6s.5-2.6,1.5-3.5c1-.9,2.3-1.4,3.9-1.4s1.4.1,2.1.3c.7.2,1.4.5,2.1,1v3c-.8-.6-1.5-1.1-2.2-1.4-.7-.3-1.4-.4-2-.4s-1.5.2-2,.6c-.5.4-.8.9-.8,1.6,0,.9,1.1,2,3.2,3.4.2.1.3.2.4.2,1.8,1.1,2.9,2.1,3.5,2.9.5.8.8,1.9.8,3.1s-.5,2.6-1.5,3.5-2.3,1.4-3.9,1.4-1.9-.1-2.7-.4-1.6-.7-2.3-1.3Z"/>
    <path class="st1" d="M189.5,134.7v-18.3h5.7c1.9,0,3.4.5,4.5,1.4,1.1.9,1.6,2.2,1.6,3.9s-.5,2.9-1.6,3.8c-1.1.9-2.6,1.4-4.5,1.4h-3.1v7.9h-2.6ZM192.1,124.5h2.8c1.3,0,2.2-.2,2.8-.7.6-.5.9-1.2.9-2.2s-.3-1.7-.9-2.2c-.6-.5-1.5-.7-2.8-.7h-2.8v5.8Z"/>
    <path class="st1" d="M201.6,134.7l8-18.3h1.9l8.1,18.3h-2.7l-2.4-5.4h-7.8l-2.3,5.4h-2.7ZM207.7,126.9h5.7l-2.9-6.6-2.8,6.6Z"/>
    <path class="st1" d="M221.3,134.7v-18.3h5.4c1.9,0,3.3.4,4.3,1.3,1,.9,1.5,2.1,1.5,3.7s-.3,2.2-.8,2.9c-.6.7-1.4,1.3-2.6,1.7.3.2.6.4.9.7.3.3.6.7,1.1,1.4l4.5,6.7h-3.2l-3.2-4.8c-.9-1.5-1.7-2.4-2.3-2.8s-1.3-.6-2.1-.6h-.8v8.2h-2.6ZM223.9,124.3h2.2c1.2,0,2.1-.2,2.8-.7.6-.5.9-1.2.9-2.2s-.3-1.7-.9-2.2c-.6-.5-1.5-.7-2.8-.7h-2.2v5.7Z"/>
    <path class="st1" d="M235.8,134.7l8-18.3h1.9l8.1,18.3h-2.7l-2.4-5.4h-7.8l-2.3,5.4h-2.7ZM241.9,126.9h5.7l-2.9-6.6-2.8,6.6Z"/>
    <path class="st1" d="M262.9,134.7v-18.3h2.6v16h8.7v2.4h-11.3Z"/>
    <path class="st1" d="M274.9,134.7l8-18.3h1.9l8.1,18.3h-2.7l-2.4-5.4h-7.8l-2.3,5.4h-2.7ZM281,126.9h5.7l-2.9-6.6-2.8,6.6Z"/>
    <path class="st1" d="M301,133.3v-3.5c.8,1,1.6,1.6,2.4,2.1s1.6.6,2.4.6,1.6-.2,2.2-.6c.5-.4.8-1,.8-1.7s-.2-1.1-.5-1.6-1.2-1.1-2.5-1.9c-2.1-1.3-3.4-2.4-3.9-3.1-.5-.7-.8-1.6-.8-2.6s.5-2.6,1.5-3.5c1-.9,2.3-1.4,3.9-1.4s1.4.1,2.1.3c.7.2,1.4.5,2.1,1v3c-.8-.6-1.5-1.1-2.2-1.4-.7-.3-1.4-.4-2-.4s-1.5.2-2,.6c-.5.4-.8.9-.8,1.6,0,.9,1.1,2,3.2,3.4.2.1.3.2.4.2,1.8,1.1,2.9,2.1,3.5,2.9.5.8.8,1.9.8,3.1s-.5,2.6-1.5,3.5-2.3,1.4-3.9,1.4-1.9-.1-2.7-.4-1.6-.7-2.3-1.3Z"/>
    <path class="st1" d="M311.6,134.7l8-18.3h1.9l8.1,18.3h-2.7l-2.4-5.4h-7.8l-2.3,5.4h-2.7ZM317.6,126.9h5.7l-2.9-6.6-2.8,6.6Z"/>
    <path class="st1" d="M331.3,134.7v-18.3h2.6v16h8.7v2.4h-11.3Z"/>
    <path class="st1" d="M345.8,116.3h2.6v10.5c0,1.2,0,2,.2,2.5.1.5.3.9.6,1.3.5.6,1.2,1.1,1.9,1.4.7.3,1.6.5,2.5.5,1.6,0,2.9-.4,3.8-1.2,1-.8,1.5-1.9,1.5-3.3v-11.7h2.6v11.8c0,2-.7,3.7-2.2,5-1.5,1.3-3.4,1.9-5.7,1.9s-2.6-.2-3.8-.7c-1.1-.5-2.1-1.2-2.8-2.2-.5-.6-.8-1.2-1-1.9s-.3-1.8-.3-3.2v-10.6Z"/>
    <path class="st1" d="M372.2,116.3c1.4,0,2.5.1,3.5.4,1,.3,1.9.7,2.7,1.2,1.2.8,2.2,1.9,2.9,3.2.7,1.3,1,2.8,1,4.3s-.3,3-1,4.4c-.7,1.3-1.6,2.4-2.9,3.2-.8.6-1.7,1-2.7,1.2-1,.3-2.2.4-3.5.4h-6.8v-18.3h6.8ZM372.2,118.8h-4.1v13.3h4.1c2.3,0,4-.6,5.3-1.8,1.3-1.2,1.9-2.8,1.9-4.9s-.6-3.7-1.9-4.9-3.1-1.8-5.3-1.8Z"/>
  </g>
</svg>